<mxfile host="drawio.moore060.rnd.gic.ericsson.se" modified="2024-08-27T18:42:42.664Z" agent="Mozilla/5.0 (Windows NT 10.0; Win64; x64) AppleWebKit/537.36 (KHTML, like Gecko) Chrome/128.0.0.0 Safari/537.36 Edg/128.0.0.0" etag="TuGYEzokp2lXl55RPfjt" version="21.1.6" type="device">
  <diagram name="Page-1" id="87Rg7qNle4E1WvnCry4P">
    <mxGraphModel dx="1158" dy="639" grid="1" gridSize="10" guides="1" tooltips="1" connect="1" arrows="1" fold="1" page="1" pageScale="1" pageWidth="850" pageHeight="1100" math="0" shadow="0">
      <root>
        <mxCell id="0" />
        <mxCell id="1" parent="0" />
        <mxCell id="IuYZDxjNcU2UcQFIooVw-10" value="" style="rounded=0;whiteSpace=wrap;html=1;fillColor=#fffcf5;strokeColor=#d6b656;" parent="1" vertex="1">
          <mxGeometry x="30" y="40" width="610" height="1190" as="geometry" />
        </mxCell>
        <mxCell id="IuYZDxjNcU2UcQFIooVw-11" value="&lt;font style=&quot;font-size: 15px;&quot;&gt;&lt;b&gt;Orchestration CI&lt;/b&gt;&lt;/font&gt;" style="text;html=1;align=center;verticalAlign=middle;resizable=0;points=[];autosize=1;strokeColor=none;fillColor=none;" parent="1" vertex="1">
          <mxGeometry x="265" y="50" width="140" height="30" as="geometry" />
        </mxCell>
        <mxCell id="IuYZDxjNcU2UcQFIooVw-12" value="" style="rounded=0;whiteSpace=wrap;html=1;fillColor=#fffcf5;strokeColor=#d6b656;" parent="1" vertex="1">
          <mxGeometry x="690" y="40" width="620" height="1190" as="geometry" />
        </mxCell>
        <mxCell id="IuYZDxjNcU2UcQFIooVw-13" value="&lt;b&gt;&lt;font style=&quot;font-size: 16px;&quot;&gt;Infra Builder&lt;/font&gt;&lt;/b&gt;" style="text;html=1;align=center;verticalAlign=middle;resizable=0;points=[];autosize=1;strokeColor=none;fillColor=none;" parent="1" vertex="1">
          <mxGeometry x="940" y="50" width="120" height="30" as="geometry" />
        </mxCell>
        <mxCell id="LuCOD0VXo25CgxTOrGB0-5" value="" style="rounded=1;whiteSpace=wrap;html=1;" parent="1" vertex="1">
          <mxGeometry x="140" y="180" width="390" height="210" as="geometry" />
        </mxCell>
        <mxCell id="LuCOD0VXo25CgxTOrGB0-1" value="RepoName" style="shape=cylinder3;whiteSpace=wrap;html=1;boundedLbl=1;backgroundOutline=1;size=15;fillColor=#d5e8d4;strokeColor=#82b366;" parent="1" vertex="1">
          <mxGeometry x="273" y="225" width="240" height="105" as="geometry" />
        </mxCell>
        <mxCell id="LuCOD0VXo25CgxTOrGB0-3" value="LastUpdated" style="text;html=1;strokeColor=none;fillColor=none;align=center;verticalAlign=middle;whiteSpace=wrap;rounded=0;" parent="1" vertex="1">
          <mxGeometry x="194.5" y="270" width="60" height="30" as="geometry" />
        </mxCell>
        <mxCell id="LuCOD0VXo25CgxTOrGB0-4" value="" style="shape=image;verticalLabelPosition=bottom;labelBackgroundColor=default;verticalAlign=top;aspect=fixed;imageAspect=0;image=data:image/png,iVBORw0KGgoAAAANSUhEUgAAASAAAAEgCAYAAAAUg66AAAAACXBIWXMAACxLAAAsSwGlPZapAAAAAXNSR0IArs4c6QAAAARnQU1BAACxjwv8YQUAACONSURBVHgB7Z3fi1bXvca/Sm6j5voofb04kPMKjVJINQh95SQavEhiqyEXgYw/CLQQ44jQQIIZw+nhBIKaBlIIaifQixLTNPYiRBPwLUicBkpswWmhF32D0+uq+QPmrGe/a+mecX6stffaa6+19vOB7Z4xe4Izs/ezn++P9V1rhHSW+fn5DeqEY6s+99SxXn+8+DD0Vvnf3tYHGJX+Hh9/W/p4pK8brVmz5raQTrJGSNZokYHA9NTxmD4bwdkgcVAIUemAUN3AQXHKGwpQRiixgbDgeEyfjdCkDATohj7+KGPHdENIFlCAEkU7m4E6fiT5iI0ti0VpSKeUJhSgRNCC85yM3Q3OPSFljCBdEgpSMlCAIkaJzkDGDmegD2IPxGiojktKjIZCooQCFBGlhPFLMnY5XQmpmmYk98XoUyHRQAFqGYpOcBCaQYQoRhFAAWoJHV49q44Joei0hRGjDxmmtQMFKCDa7byqjmNC0YmNkYzF6F0lRiMhQaAABUC7nTclsUTy3Nxccb419697f1f+eDHr162Tdesevvf5po3/UZw3btwoiTGUsSuaFtIoFKCGiNntQFju3P1Obs7+rfh4TokKPsfHd9X5lhYe32xSQrRRi9KW/n8VYrWl39dnfL5OImOkjrMyzheNhHiHAuQZ7XaiSChDUG7O/r0QlFklNhAcOJi7d+9KjECA4JrgmLb0Hy3ECYIFcYqAaXWcohD5hQLkibbDLIjK9Zmv1fGnQmhwxCo0rkCYIEI4dmz/YSFOLYZ1Jk80FFIbClBN2hIeuJuvlODMKMGB8DQVNsUKnBLEaLs6ntj+eBuCNJSxIxoKqQwFqCKhhafscC5f+bJzgrMaRpD27H5KnR8PmU8aqeMghagaFCBHQgoPROejjz8pBAfCQ+yBGB3Y/+OQ7mgodETOUIAsUcLTU6dfS8PCA9E5d+HDQnAoOn4ILEbTwmS1NRSgVdDldDieY9IQdDrhCChG00IhWhUK0Aoo8THC00g5HWJz+ux7WVWsUuJ5JUQQI4hSQ4xkXDE7K2RJKEBLoPM8CLd64hkTYp27ME3RiQQksCePHW3SFY3UMcnFrw9CASqhw60zMl4g6hW4HYgOwiwSL3BFhw9NNNX8OC0MyxZAAdIo8cGyiSnxHG6ZMIu5nbQwuSIIkmdGMhahaSEUoKaqW0gqnzn7yxUXb5L4MeFZA0I0lHH/0Eg6TKcFqAnXQ+HJk4aECPOITnU5Sd1JAWrC9VB4ukFDQjSUjrqhzgmQEh+sUof4eHE9yO0cP/FzCk/HaECIRtLB3FBnBMh3QyGTywSgWnb+g/d9lu8Rjp3qyrZCnRAgHXJdFQ99PViFDuFByEWIAU7o+LFXfAnRSB27uhCSZS9APhPNEB42EJLlwAr8I4cmCiHyQCcS1NkKkM+Qi3ke4gLyQ6ffedvXEo+zSoQmJVOyFCAdcv1exvttVQZOx7geQlzxGJaNJNOQLDsBUuID0YH49KQGWDIxqVwPwy1SB4/VspE69ikRuiEZkZUA6XxPrZgZggPh4Zot4hOPbmgyp7xQNgKkR2dMSQ2Y6yFNAjc0dfIN2bP7SanJlBKhU5IBWQiQEh80Fk5IRZjrISE5rkIyD5WyLJLTSQuQrnShv6dyshl9PYdf/lkxFIyQUMANXfztb+qGZMgH7Uq5aXGtJIqudH0jNcQHzYS79z5L8SHBQZiPe69mQyvu/W/0s5AkSTogH53NU2/9giEXiQI0L06dfF1qMJJEy/TJCVBd8WHIRWLEQ0g2kgRFKKkQTPf4VBYfiM6BF16k+JDoQEhW897sqeNqauFYMgJUV3wQbu3Z+wxL7CRacG/iHsWmBRXpyTgnVGsFQEiSCMFK4lNpQSlK7KfP/lIISYWapXpUxXal0DUdvQCVql3O4oP+nqm3/ldVGn4nhKQGuqexqLUiSYhQ1AJUJ+EM8WG+h6ROzYFnI4k8MR2tANURH1S6ID7M95AcqFkhG0nEIhSlAFF8CFlIriIUnQDp5RXI+fTEEYoPyRkPIrQttmUbMZbh6XwIWQLTK4R7vQI9GT9bURGVACn3g33ZnXsYkGjGuhqKD8mdmg2LW/XkiGiIJgSrOs8HbwOIDycXki5RMxyLZp5QFA6otHOFEybsoviQrlEzHJtSz5yX/fHq0roD0l3O34gjzPkQUtsJbWu7UbFVB1TavcIJig8hY2o6od+3vXi1VQekvvl/imPFi+JDyIPACV3+7A/F5oiOtDpVsTUHpCtePXEEs3woPoQsxDihCvlQpEDelJZoRYB00tk5CXb8xGtc20XIMuDZwKTPChxrKykdXIB0zDkljmCkBle1E7IymDGNZ6UCb7aRDwoqQKVdLJxGa2CYGOf5EGIHnpUKQ82KZ1M/o8EImoTWeR8nqwdbiSlxhBA3kJTGOA9Hgu43FswBKfGZEEfxQcXryMs/FUKIO3h2KpTnkQ96TgIRxAFVHa+xY+eAFS9CagAHBCfkCEry20KM7wjlgLAArufyBcjmU3wIqUfFyhjyQEEWrTYuQLrkPnD5GiSduWkgIX7As1RhB9ZBiNJ8oyFYlYHyXN1OiH/QIX3ls0uua8YaD8WaFiDkfQYuXxNr3meT+sXt2P74gr+7o0RyTv1b8e+lYHYP3BP9/qOyXi9/2LjxP+7dD+NzpfVZjYF8EBauOi7XGCoB2iUN0ZgA6aqXUxwZ8/5dM9eGxQ22HIi14d4uX/my+Jgd23mBhxYP8J7dTxZnHCs9yAh7KnYlN0rFfegnlQidlQZoRICqVL3w4B6OtOS+Y/sPizeHC3gDfjXzJ7moYu/r6kzSAwKDvbmM6Lg4Bzji7Tt3RemMcS/jnnYAodjmJhasNiVAcD4TttfHvsIdm8PhRqwKxOjzK1/I+QsfRmfLyYPg4cSupK6isxi8UPFijY2KK+enlQAdFM94FyDdxOQ04+f4iZ9XydIHY/avf651I5aBG4I9j/HG7DL4/R459FIRovj8XePFGiMVQzGM7RiKR5oQIKcZPxAeCFCs7Nn9VLEzpW/gipDvill4uwASyQf27/MqPIaYwzBQIRQbKQHaLB7x2geke356ttcj9DoT+SJTxP9NgIQ2Qjskt+uEd6QaEB78/K9fu6rCraPexQeYxHWs4MXvKI499YxPiUe8CZBOPDs1LqHqFXu38xNubwhnKERhgSgY4Qnx827qBeaDW4ULdx7d8arPFfPeQjDXxHPM8bEBb0ncqCFhaNYMTeR4bMDvc/vOgcRMhVDM24p5LwKk3c8/Xb4mhYWmeEPibdkGEGhMgGTVrD4QHVS1QgpPmf73fxB1oyqqYteVA3dks48O6YfED04zZVMIvcD2hsOvlcAbCe4LTuhM8fNqTojwYOImRDiIrl6c8Xc41q97eMHHNty5+929Bw5nfI583111vqXPITqFTTl9R4u/x/G/4/Goq563tOtGLswBRDy1O6RrC5ByPwNx7PlJZaHpphU6n0MBF4Y8VN2wzIgMkqJ9dZiPjbj4xGW1EQQKXePmPO4o/1etTnJ8PxAeOJ8YiOE+Wg1MUHQMT7FYdVC3LF87BHNd7xV7z0+ZudE/JCZswzLcRHjrmvVrEJqKG9e1ihGkWX226ShH0vfUyTdWXDYTmthbTQwVUg6114nVEiDtfqyztHA/6ItIgS39vlz+7JLECNxQuXphhAYh4xPqnKLY2AIRghiZNXcm1IPonlEPT4xVpxQS0YYKCelazYl1Bcip6RCznVNZpFll/VdIzPKOp9UDl7PgrAYECUfo6pYLEEkkolOgwn1fywVV7gPS7qdnez1saEorxGOP2xFi4KHrsviAcaL5aLTiA8b5tzR+T0bQHRhoLahEnUZEp8pX7B3Pi4kph0DSZ51lBTEGKuSrKu+sWkmAtOINbK+H+0ltvnPMb1SSHindT3hWHQtFlV1QVQf0qsvFqbkfQAEiPkmhFF+mwjNbyQU5C5DuerbeNyhF9wPWU4BIhwnlgqo4oKxzP4aUYnZCmqDCs/uSOOIkQNr9TNhen6r7IYRUckHPua6Ud3VATlu2pup+AIWTEJHzbsumID5OI3lcBcg6+Uz3Q8h97iS6bZPtEpgSTgUqawHS2+z0bK+/mPg8G+7zRXyCCQCp4ji0bINLMtrFAVknmG7Ozia/FQ0FiPgk5fupQne0daHKSoB08nkglmD7mdSZY/hIPJJ6OuKie0neKhlt64CsE0tY8Z7DONE7CVtmEhdwP6k76s+vfOn6PVhphq0APWt5nXw187XkwKwKIwnxQQ7bdEN8HAcJWiWjVxUg11XvKZfey8AyMw9EfJCDAIFzbqkVq2S0jQOyTj4jUZVT6T2XG4e0y2wm9xFeyI7J6FX7Bm0EyLr5MPXS+2JSr+SROMjpRebogl5aLRm9ogDpfd6tstm5JJ/LXM8kn0XaA89FTgKEl7JDagLasXWlC1ZzQJ1LPpdx/GET8gC5PRd4HhyNxoopnNUEqLPhl+HziPdzIvFz+coXkhuOe5ytuEB1WQFyDb9yzZfkKqykefBcxLwhYVV8hmErOaBOh18GzgUiVUlpGL0rvsKwlQRoIJbk6hJw85xpaW94kj4QoHMfvJ/leF/XMGy5/7CkALk0H+YafkF8sD8SZ0OTOmBX2qmTr0tuuIZhyzUlLueArJPPuYZfeHNxax7iA2x5fOSQ87TS6HGdGb3UXy4nQD8SS3IMv44fe6V4cxHii6mTb7hueRw9jmHYkprywNbMumT2b7EgpS1nbcHe4uc/+JUQ4huMeNm995lsesuQnpi5dtUlTfHImjVrbpf/YikHNBBLcsv9IO9zSr2pCGkChPRw17kAIXXs8n4gtbOUAFmX33PrcZhUNwfzPqRJjhyayCoUc9SAB/qB1tpctBw5OSDkfJAsJKRp0NqRS3XVsdP7AXOzQIB0/sdKgFB+z2n0BvM+JBRw2blUxaAB0AJLeouXZSx2QAOxJKfyO5wPQy8SEoRiubggRy0YlD+pLEAzGYVfx48dFUJCAvHJJSHtqAWD8ieLBegxsSSX/A/dD2kLuKAc1oo5asECjVksQJ3L/9D9kDY5sH+fpI7j/PQFGnNPgFRyCP/BavxGLhPe6H5I2+SSC3KYHrpBa01B2QH1xJJcwq8DLLuTloH45FARc9SEJQVoIJbcnP27pA5i79zW5pA02bP7KUkdx6hoSQGyTkDnEIJNZtQST9IGTbCpvwwdNeGe1pQFyCoBfXN2NovFdE/Q/ZCIwCLolIEmODQkLnRAujvRcv5z+tUvvG2YfCYxkcMyIIfUzAbTEW0ckPX6rxzCr9TfNiQ/kIxOPQy7Ze+AQKE5nRQgJp9JjOzY/rikjOMW1D38sbb8iQ2ph2B403DaIYmR9BPRTtXxBQ7oe7ZflXoHNN0PiZXUX4yOIVgPfzg5IGS6U6+ApW5zSb6k7s4dK2FFKd5JgHLI/zD8IjGT+v155+53tpeOq2AuJfgc+n8oQCRm+onfnw4mpSjFwwH1bL8idQcEi8uNBknMbEq8P23OLQ9UCJCV+wGpOyC6HxI7W/p9SRnHKvlWRweU9iJUuh8SO6l36DvkgIBbCJY6qdtb0g1SnpLo6IB6a12uTr8J8WEhJHZSvk/v3r3jcrmbA3JsNIqOjRnM3yX5k3KqwDEEWw8Bsu6CJoQ0T9oOyKlQ9Yh1CJbDGI71TEKTBEj9PnUoxa93ygGlDnNAhESFfQ4o9fwPISQMDgvWNzwkHeKuW4KMkFY4fGii9R1bsOoBaRfsdtHkCggIkHUndOrcyWAtG8mfGDr2y2NrIERfKSE6c/Y975GQ9VKMHBaiEkLcQXc2ZlZfv3ZVTr/z9qqNkg4hmH0j4h2GL4R0HiNExz1ta9WpKhghxA/Hjx2V8x+8X7tpslMCNMdKHiHewI6uF3/7m1oiRAdECKkMEuYQoap0zAGl381NSGxAhKZOvi5V6JQAMZFOSDMcOTRRaccZOiBCiBfOqBI98kEua9nQiDgSi+UYOQzzcpxVQoh3UtjaqurYGvQLHTn0ksuay9udWoqR+qaKJE0gOOcufCgXP/4kmTWVCKewHOR5xyUhCMUclm50S4AASvEcTEZCgYfxyMs/Te7lhzVgOGbUgQSzbanddXNF5IBu21yY8pzaMkxEk1DgZXfghReTdt4fKdd2+OWfOX2NQ1/QyFqAciGH3V1JGkB8clhDCSd0+uwvpQmsBSj17UIMsxQgEoCPinxPPjlH5LCaEFMIUKdKQ0xEkxAg4ZwTEJ/Pr3wpnnELwXLIA83OzgohTYOwJTdm/H9P3zoJUA4zleGAONuINAnvL3sgQCPbi3PJA12f+VoIaQqO/rXGLQTLZVubHO0xIQlSCNAN26tzcUAsxRMSBbedHFAuHcQQIMbphLTOaO2aNWsgQFYitKX/qOQAxIcuiJBWuQ3tMeM4rARo/br1kguX/fc0EELsGeEPI0BWeSDkgNZlkoi+fOULIYS0xrf4Y235ExtymAsEbuldHwkhrTDCH04OCMSwa6MvKECEtMYIfzxU/sSGfkYChAV22N+IkBjBcK89u58UH0y99YvYCi+F6Xmo/IkNuYRgANUwuKAqw7QJaRq87H3dmxHmbgvNKUIwt1J8X3ICLogQEpTbWnMW7IrRuUoYQDWMTYmEBOWe1pQF6C9iSU6JaHDuwrQQQoJxT2ucHRDIpSPa0NS0N0LIkgzNB5UEKLek7XjblGkhhARhZD64J0AqKQQBskpE51g1ogsiJAi3tdYULN6a2coFIQmdyzY9BrogQoKwQGMWC5B1InrH9sclN+CC5hLZuZKQRFmgMYsFaCiW5NQRbYALmjzxmhBCGmNY/qSyAD29+ynJEXRGszmRkMYYlj9ZIEC6O3EkFqAhMbc8kAG7QDIUI8Q7N0wHtGHtEhddEkv27P5vyRGGYoQ0wgNFrrU2Fy1Hzos4x/thvyeEEG88YG6WEqBPxZLcV5EjFOPoVkK8MVz8Fw8IkI7RhmIB+oFyF6HJEz9nPoiQ+jyQ/wFrl7n4j2KJr4FJsYJ80IEXXqQIEVKPJTVlOQEaiiW5luPLYH40RYiQWiyZ2nloqb9UVmk4Pz8Pu7RBVgHleIRhuc9XNiJ08be/yWaDRhI35y9My8WPPxEftDyOdQRNWeo/PLTCFyFj/ZJYgGUZXRjwThEiIclo88zhcv9h7fJfI9NiyfP7fyJdwYgQd1YlxJplewtXEiDr8RwmDOsKEKE9e5/hkg1CVgfjN5Zt7VlWgHTJzKErOu9q2FJMvfU/bFYkZGVW7CtcyQGBabHk+f0/li6CZsUdOweskBGyNCuamNUEyDoM60JT4nIgJNu+cxfdECELWTH8AisKkA7DrBMdx4+9Il3GuCEmqAkpWHVZ12oOyOp/YoADymnPsCqYBPVxLuEgZFXzsqoA6QYiqzAMHDlk1TqUPR99/EkRllGISEdZtvmwjI0DAu9aXqcEaELIfShE3QNtKcSugr7G5qL5+Xksyfi3WHL45Z8GGWOBkA/lf+zUiqMc/uFhRziEDu3rM19H06m9Z/dTRcWwi20LXWKHeuncyuyFgxzv8WNHbS/frBzQaLWLrAQIKBG6qk4Dm2vxsKNbuEmmTr7u5LbmlBghSQwxiuHG2KTekhAjhKxc1pEf6BHLrVH18md/sN2WfajEZ5fNhS4CNFCnq7bXQ4CadB1zo39IFSBEH338u6hK5vilHlCuCI5uS4a7jXQRVEJRjMgF3JtYA2nJQSVA0zYXWgsQUCKEMGzVFfKgaReEH0advqM5vaYrNpu8SS9rgSAtDitJWsBx59AbhnvwinI/lrktJJ83iyWuAjSlTm/aXt9kHIyHEyJU9wGN/SYxrmh8fpThWmKkHorh+cJz5uDMJ5UAnbW92FWA4H7+KZYuCBUgVH+aAsnc0++8LXXBlsxTb/1CUgAOqd/vF2K0RZ3xVmLYFjd4Ds6ol1xqSWm89M6o58uxqmeVfDY4CRBQIjQtlnOCQP/7PyjGmjYFHr7zH7xf2xkgZkdI1uS/tUnwc8DPAAJlRAlvL4pTPFy+8kVxnyH8t+UjDwPJUOxYv+5hq2s3FvfPRnlaVWkrRBfTSnwOunxBFQEaiEMyOkSIg4cOTqjuWrTURWgxp9/5v07NasqRjb3/lLrUzZc64OR+gG0j4j10d+PQ9nqUypveQdUMCavb7GfcVA5QfEhgLrmKD3AWIM0p2wth4yYDLVKFXYUQ1bGteFOgxyhl0DBG8SGBsU48l6kkQK4uCMniUPvIww3BCdUJ++DaUl3Thg5rh25VQnwwtFn3tRRVHRCwdkEAIUFI6uaepk6+kVwCFyJ/Sv27CQmMkxaUqSxAri4IoU3ogWV1Rej8B79KqhHwcLGsgwshSVBGVd0PqOOAgJPytTGwDCJUtREMD3MqoRjcDycRkBZwKrsvppYAVXFBbawCRzdq1XVpyKdsSqD7eLLj0yhJKwzruB9Q1wEBJxeEHEUbYQ0S01X7e0Lnr1yBQHZ1UwDSKpVzP4baAuTqgtoKa1AdmzzxmlQBzi3mUAw70xISmOm67gf4cEDAKQ4M0Zy4FGiFr5oPQlUs1l0/WHYnLVDb/QAvAqQ7IK3HtiIEayusQVK6aiiGhXmx5YPMglRCAjJdpet5KXw5IDAlDsPr2wprID5VQzE86D5GgPiE4RcJzEg8uR/gTYD0HmLWLgggdGjjYUYoVrUqFpsIcbY0Ccy7vtwP8OmAIEJTMlZIK/AQn2kpFKszpwgd0pgQF0M4xnEbJCAjl2FjNjwk/kFC2npcB2aV4C0eYheNMqiKISFdNQw0TqjNsa7I/+Q4shVhcgq7y3ZwK/JJ8YzzPCAbXIeW4Ybbs/fZ4A8yHt6Za1drPcT4t9fptq4DxDuX8SEAUwwuqiOWLZRsQP8VOvybGpUb0Twg52FjNngNwUocE4eEdFtVMYgHxrHWAf92lOhPt1AhyyUBjd8D9pJDWJyS+ACz8WRuW/AsYiQeE89lGhEgnZB2+ge3VRXDjeNjAiLehNeVm2paiCB4eOPO/vXP2az9QhgbOgT3TY77gJU45TPxXKYpByQ6WTV0+RpUxUInVX24oDJlIfKVIzALTWGlITxtVQ+bANMKUsj32IBQPMPtt4e2e3xVoZEckEHlgnrq9I1Y7qIBMLB7995ngs5lxsOMB7sJ8H2Y7aHxoOFY6XuD2Jih8n11PKHCrJy34tmxc1AUBHIBLwqfEzVbzgEhktnWlPsBjQoQUCKEfNAZl69pY5ucgIO7C5Z6U3Ztzy/0Yx1++WeSE75fZi0L0KTvsvtiGgvBDFVCsTZGoobenHBj4XQWHl0jl9CrDNytrzBsrl1nOGxafEDjAqRB+c66KgZCj0Qdh0lpVWBSZy6j0KvMnbvfiQ98taVUyBeOpOagMVuCCJCOIZ2/IYxEDVnazmEfb9I+vvKXCFF9sMl9sfKpJvM+ZUI5IIjQp+K4VgzJ2HMBG+3ogkhM+GhNgPtxdEDvNln1WkwwAdJMicNaMYAwLOQ+XXUmJxLiC7wIfVQHHdMYIxk/o8EIKkC6QXGXOOaDkJQONdAev/TQFThCFlNnsXQZx/DrQ/2MBiO0AzL5IOe2bjTfhZp7jPZ65oNIW6ANxVdv1Ha38vsNCUxwAQK6vOeUDwIIxUJVxuruKUZIFdCa4NOBP0EBWpYpcfyGkUxDU1WoyhhFiIQEeR+si/MFmg8dxvWOQlW+yrQmQDrW3CeOSek2RIg5IdIkKHrgHoP4+CyAHHBLWfxFWqBNB2TyQfvEETMMLJQIISbHmqUMFxqSFoHYIN+4Z+8zXhdEGxzDr0+lBZqYiOiEEqEb8/PzmLTmtF4s9ERCJAUx98UsE+ni0okY2aTvAx/gd+wjBFppicndu98V9yt6fFZbmFwHFGwcd0sZSgs0vhjVFiVCU+r0pjgyp2+akNMUcdMf2P8T9UveRyGqAUrNcAB1wO/i+rWh+GCueMkMJAdm1M/EQYCw7muXtECrIVgZPdDeeaJT6HAM4E2J3BAcER6i1Idpkbyo4H5am6TWeghWRonQhHJCj6kPt7p8XZsD4vEGx4HkOKoOGLCPVoEm2gWQg7o5+/fie8TbOmSHOEmD8cRMp51yUQxqJf8DohIgDawghpj1XL6o7V0qEMtj8WB5ASEECTfElv6jxRkubd26h4v/trhD1TSemfOcFhmsrJ5VuYI76v9fzhfg6ylAZDHjAflO7ufT0N3PZaITIPwwlAuCCGFrn57L18awVU4Zs7DV16pmQlZiPFd9QhxpZNi8LdHkgMro8jxEaCSOtJETIqRtcL+feedtcWS6jebDMlEKEKgrQpc/u8RdQ0lnwNgax9ALtOp+QLQCBEqNis4xKnIulz/7Qytb/RASEuypV+Fl+27b7gdELUAAjYpSYYSHAaNdQ43yICQ0EJ/n9/9EHBmpo/F5zzZEL0CgrgihLMmKEckJs5twBfEBp2JwPyAJAQJahLZJhZwQQHUA3aFMTpPUwT2MQktF8ZkOOXJ1NZIRIFAnMQ1MhYzJaZIqKLXXuIdH6piUiEhKgIAPEUJymnkhkhIIuZBGgPhUqHaBYhxym02HS5GcAIG6IgSQF8L+7bnssU7yBS/LmWtXqzQZljkYS96nTJICBPQPEzmhymMksWjvinJDzAuR2Biv6Xql2OYZL8uaL8pTelus6EhWgADspDogQs7zpQ0bi3EOVxmSkdYxC5rhzGeKe/KoD4d+Sk+aiJIYF6M6o37Ax+bn5xHbOs8TMuCXjV/+8ROvRbGOjOQPnHe//2iRUMa9h7PnlEDU4gOyECCAH7QWIafJimVMhQGzfuoOyiLdBVuKYwLCclTYrbQKk3r3majJRoAAfuBKhIbqw9+L40p6A0IyWGDsp3Tm7Ht0Q5GD8SU7drYyzG9ZMHKlxUmZeAkfjDXns5isBAjoGdOVxnmUQYL66d1PFm7o3IXWBsYRC/iSuMdIxqX2kSRC0kno5cAvQB2bpUZyGox7L96IsoMag8oIKYF7fVtK4gOyFCADktMy7vys1XxlKmVoBItFiJraTYEkx0jGrudYbE2GNmQtQEAn4iqvISuDRrDxGpwwe9QTsgIQG8zzgesZSqJkL0Cg1LRYKyQDJkmNsAwD6AkJjBGezaj8puh6ynRCgIBuWkRIdlA8uCEIEcqtECN2UpMAZCU8hs4IkEGPIkCVbCgeQDiG/BCFiDQARGZaxjmeR3ISHkPnBAjoKhlEqHaC2kAhIh7AvTiUcarAiM7BlHM8q9FJATKUEtRD8QSFiDhgwiqkBbZpwTEVraF0gE4LECi5IS+5IYMRIlTNsMTDN1v6fUkds0ljbjgss7itw6ppPfGzc3RegAyl3JDXtmezvgxVM5/l+5XWGqVCPwMRXQqHaYUj6ThrhDzA/Pz8czJe1NoTz2C75a9m/lR7nRkEreJkvGhAM2X/+z+QnNiz+ylVHX3f9vJL6sX3nHQYOqAlwEI+vZQDSeqReASiUQ7P8LHryugK+39HCb7v3PZtc5wr1cmwqwwd0CooN9RTpyl1NPakwAl8fuVLufjxJ/f2k18KMyWv5mjOqMD3vmfvs1ksKMXvBnOlHNjVlWTzclCALAkhRMCEaDPqwKgJsEm5nb7KK1RxSymA7/nACy8mLUJ4KTjuPYcE9CPScShAjighGsh48uJAiDcgQikOgkOrxaRyPhUKDKh8HZSOQwGqiBaiX0sDieoug5AMYejN2b9JzMCJmlGqFdmc2uiMJqAA1YSOiFSA7kdDAfKEFqJX1dHpsiqxgu5HwzK8J1DNUMc+9SHK95zhSpbjFMXnPnRADaGrZnBDcEU9IUTkXT0ShmgoQAFQYjQh4/L9QEhXQdNhdHuztw0FKCDaFeEN+KzQFXUJbJFzkOLzIBSgltBJ6wkZi9EGIbkS/e6kbUIBigC9+BUHxSgfhjIWn6GQZaEARUZJjH4kDNNSZCjjZHMSO5O2DQUoYnSYZsRoq5AYQV4HCeY/qmNIx+MGBSgRlBghNBvIWJAeEwrSYkbquCRjMRhKGG4zsVwPClCilAQJhxGkruSPjOv4i4zFZkghSBMKUEYoUYII9SQvUSqLDc43ujo/OUcoQJmjndJWffTU8T19xhGLON2W+0LzrT6PZCw2dDYZQwHqMFqcejIWop7cr7p9TxZW4MzHG2R10RqVPr696LijzyO5LzjMo3SY/web4slIXLdw7gAAAABJRU5ErkJggg==;" parent="1" vertex="1">
          <mxGeometry x="40" y="50" width="70" height="70" as="geometry" />
        </mxCell>
        <mxCell id="LuCOD0VXo25CgxTOrGB0-6" value="" style="shape=image;verticalLabelPosition=bottom;labelBackgroundColor=default;verticalAlign=top;aspect=fixed;imageAspect=0;image=data:image/png,iVBORw0KGgoAAAANSUhEUgAAAgAAAAIACAYAAAD0eNT6AAAABHNCSVQICAgIfAhkiAAAAAlwSFlzAAAN1wAADdcBQiibeAAAABl0RVh0U29mdHdhcmUAd3d3Lmlua3NjYXBlLm9yZ5vuPBoAACAASURBVHic7N13uF1Vtf7x70ihBAi9JEGp0gwIUhQB5Yo0RcoFFFQQrlS7ooKCeFFR8SfYAEFQBJRyLQGkCiggClKl9yaETugJCSTj98dcJ5wkp+yy9hpz7f1+nuc8J+LZa705OWeNseeaa05zd0Qkb2Y2ClgSWKrf57n/vBAwPzBf8bmRPzswFZhWfO7/52b/2wvAY8Bkd5/eoW+FiJTE1ACIxDEzA8YBKwEr9vu8HG8W9qWARWMStsSBZ4FHSQ3BY/3+3Pd5sru/FpZQRNQAiHSamS3DnMW9/+cVSO/Ee9EzzNsg9P35fnd/LDCbtMHMxgIrFx+LAs8DU4BH3f2hyGzyJjUAIiUxs4WAicA6wNr9Pi8RmavGpgC3AP8uPt8C3OnuM0JTyYDMbCLwUeAjwGpDfOlDwCXAOe5+SRXZZGBqAESaZGYjSO9s1un3sTawCmCB0XrB68BdzNUYuPuzoal6mJmtD/wU2KSFl98MfIfUDKgYVUwNgMgwzGwc6eK2CfBuUsEfExpK5jaZN0cJ+hqD+9x9VmiqLmZmiwE/AvYGRrR5uL8CH3P3p9oOJg1TAyDST/HufiLwHt4s+iuFhpJWTQVuBa4ELgeudvdpsZG6g5m9FbgQeHuJh30C2M3dryrxmDIENQDS04r79u9iznf4dZpxL42bDvyD1AxcBtzo7jNjI9WPma0DXASM78DhpwPbuPsVHTi2zEUNgPSU4rG79YBti493AyNDQ0mUF4C/UTQE7n5PcJ7smdmSpPv2b+ngaV4ENnP32zp4DkENgPSA4l7lVqSCvw3pGXuRuT1GGhm4HLjc3Z8IzpOVonm+kPQ71GmPAm9395crOFfPUgMgXae4UK3Lm+/yN0bv8qV5d/BmQ3BFrxcjM/sMcGyFp/yhux9c4fl6jhoA6QpmNj/pnckOpKKvd/lSpjdIjcBZwCR3fzE4T6XMbD7gQWBChaedAUx09/sqPGdPUQMgtWVmo0lD+x8lFf6xsYmkR0wnTYI7Ezjf3acG5+k4M9sPODHg1Ce7+74B5+0JagCkVopNcbYgrTa2E7B4bCLpca8C55JGBi7p1lUKzexm0m21qk0BlnP31wPO3fXUAEj2zGwksDmp6O9M2gFPJDfPA38ijQxc0S2PGJrZcqRn9KN80N0vCjx/12p39SaRjjGzd5nZccDjpMlY+6HiL/laHPgU6Wd1spn9zMzeU0xKrbOtg8+/Q/D5u5ZGACQrxSN7nwD2JS25K1J3jwBnA2e6+7+jwzTLzI4FPhMY4Q53nxh4/q6lBkCyYGabkYr+LsCCwXFEOuUu4HjgN+7+SnSYRpjZGcDugREcWMrdpwRm6Eq6BSBhzGwpM/uymd0FXAXsgYq/dLc1gZ+TbhH82MxWiQ7UgOjtrI20N4eUTA2AVMqSLczsLNIObkcDawTHEqnaWOCLwL1m9mcz2zI60BAWiA4AbBodoBupAZBKmNmYYiWxe0mTpD4KzBebSiTcCGA74C9mdqeZHVhsUJWTydEBUAPQEWoApKPMbFkz+y5pbe9jgVWDI4nkak3S/IDHzOxoM8tlG+qHowMAGxSrfUqJ1ABIR5jZWmZ2MmkG9KHE30cUqYvFgC8D95vZOWb2/uA8DwWfH2B+YMPoEN1GDYCUysz+y8wuAG4nPROtrl2kNSNIz8Bfbma3m9l+ZjYmIMf1AecciG4DlEyPAUrbiuV5PwJ8BVgvOI5IN3seOAk4xt2fquKEZjaCtCTvolWcbwgXuPt2wRm6ihoAaVmxQ9g+wCHAW4LjiPSSV4GfkbbMfaHTJzOzC0m7bEZ6HljSVbRKo1sA0jQzG2VmnyLN6D8OFX+Rqi0EfB14yMy+UcGTA1d3+PiNWBx4e3SIbqIGQBpmZiPMbA/SamYnAysERxLpdYsBRwIPmtkXOjhTPocGADQPoFRqAGRYxeI9HyFN7DsNPconkptlgJ8A95nZp4p5OWW6Dshhq2M1ACVSAyBDMrMdgH+TNjNZMziOiAztLaTRuTvMbLeydiJ099eAG8s4VpvUAJRIDYAMyMy2NbPrgXPQrnwidbMacCZws5mVNXM+h9sAK5jZ8tEhuoUaAJmDmU00s8uAC4ENovOISFveAfzZzP5pZpu3eawcGgDQKEBp1AAIAGa2pJkdRxru3yI6j4iUamPgb2Z2qZlt1OIx/kHamjeaGoCSaB2AHldMFjoQOIL0mI3k6XXgMdLSyv8pPq8A7BkZijQp9H5gQvExvvi8DGkbV8nTH4AvuftjzbzIzO4kfi7QLe6+bnCGrqAGoIeZ2VbAj4G1orMIL/FmYe/73P/PT7j7rP4vMLO9gFOqjTmPvd39N3P/RzMbDSzHvI1B/z+vDIyuLKnM7RXgcOBn7j6zkReY2S+BfTuaanizgCXc/cXgHLVX9qMiUgNmtipwDPDh6Cw9ZCrpMcqHGaDAV7GaW5Xc/XXSDpCPDvY1RZPwNmAiaYGXtxd/XhUYWUHMXrcw6Tqwh5kd4O7XNfCavxPfAIwg3dK4ODhH7akB6CFmNhY4DPgCMF9wnG42C7gT+Bfp+el/Abc3+i6rVxRNwp3Fx2zFYjZrMGdT8HZgJTRvqRPWA64xsxOAbwzzzjqniYBqANqkBqBHmNmupLXDl4vO0oUmM2exv8HdX4mNVF/uPh24pfiYrdgJb03StrCbFR9ahrocI4BPA/9tZl9y97MG+iJ3f8jMHifdxomkiYAlUAPQ5cxsAnA8sH10li7xMnADbxb7f7n747GReoO7TyUtRnMjcAKAmb2VN5uBzUgNgiYftm454Ewz2xv4jLvfP8DXXE3a/TPSRmY2uhhFkhapAehSxQpg+wNHAWOD49TVG6T79rOLPXDX3JPxJI67/wf4XfGBmS1Jene4KakheCeaaNiKrYDbzOx7wFHu3n8Z4BwagAWB9YFrg3PUmhqALmRmq5P2DN8sOksNvQBcAJwLXOzuLwfnkSa4+3Okf7tzYfZtg3eTfhe2Bt6F5hE0agHg28DHzOxAd7+i+O85zQNQA9AG/SJ0ETMbbWaHku6dqvg37jHStsZbAsu4+yfc/fcq/vXn7lPd/a/ufoS7vwcYB3yK1CBMjU1XG2uQFhE61cyWBm4l3QqLpnkAbdIIQJcoVvc6GVg7OktN3E7a5+Acd89hkxOpgLs/Dfwa+LWZLUBa9XJ70iOx4yKz1cCewHbAwaR33lvGxmGT4PPXnhYCqrliiPNI4PNoRGcos0hLmZ4DnOvuDwTnaVvOCwHVTTFnZgNSM7A92gBrODPI41HiNd397ugQdaURgBozs/WAM0hDdDKvacClpKJ/vrs/E5xHMuXpndD1xcc3zWwFUiOwA/BfqLmeWw7FH9JtADUALdIPdQ1Z8lXSMJyK/5yeA04F/htYyt13cPdTVPylGe7+iLv/3N0/AKwIfBOo/ahRF9I8gDaoAagZMxtPelf7Q/LpwnNwJbAbMM7d93L3ScVz4yJtcfdH3f27pGWLNyc1mK+GhpI+agDaoAagRsxsJ9IMXG3Xm7wEHAu83d03d/eztTCIdIonV7r7XqQJg/uQ5pVInFXMTKubtkgNQA2Y2ZhiF64/AUtG58nAv4H9gPHu/jl3v3O4F4iUyd1fdvdfufumwOrADwCtCBlDowAtUgOQOTNbH7iZ+B24or1G2nt+Y3dfz91PcncNw0o4d7/X3b8OvBX4EPAH0iqSUg01AC1SA5CpYqLf14BrgNWi8wS6H/gqsLy7f9LdtfKXZMndZ7r7he6+K7AyaavdHBbM6XZqAFqkBiBDZrY4aTnao+jNdcxnklZq2xpYzd1/VCzxKlILxcTBg0i7FR6Mbg900jvMbOHoEHWkBiAzZrYuabezbaOzBHgC+A6worvv6O5/ca1UJTXm7i+6+w+BlYC9SCtQSrlGkfZ7kCapAciIme0J/JN0seglN5F2F1vB3Q9398eiA4mUyd1nuPup7r42qbn/a3SmLqPbAC1QA5ABM5vPzI4jPV+8YHSeCt0F7ApsUGy+o0f4pOu5+8XuvgVpO9sz0YTBMqgBaIEagGBmNgG4Avh0cJQqPQR8Eljb3f+gYX7pRe5+k7t/DFgV+Clp6WppzbvMTEvbN0kNQCAzex/pfv/G0Vkq8jip0Vnd3U9z95nRgUSiFcsOf5G00uDJpEmw0pyFgXdEh6gbNQBBzOzLwGXAstFZKvAs8BVgVXf/hYb6Rebl7pPdfV9gImnRL2mObgM0SQ1AxcxsQTM7Czia7t+N8SXgW8DK7n60u2uIs1w53DrJIUNXcfe73X1n0sz2K6Pz1IgagCapAaiQmS1Nmv370egsHTaVtFnRSu7+bXfXYiid8WJ0AOD56ADdyt3/5e6bAx8EbgmOUwdqAJqkBqAiZrYaafvebn5edQZpc55V3P1gd58SHajLPREdAJgcHaDbuftFwHrAJ0gTaGVgy5nZKtEh6kQNQAXMbDPSkr4rR2fpkJnAKaRV+z7n7k9GB+oROXyf1QBUoNiJ8HfAGsAXgGeCI+VKowBNUAPQYWa2G3ApsER0lg6ZRNqO93/c/ZHoMD3mMSBylOWp4kMqUiwo9DNgFeBI0qibvEkNQBPUAHSQmX0dOAOYPzpLB0wGdnT3/3b3e6LD9KLiMcrzAyNcoDUcYhTbER8GrENaR0QSNQBNUAPQAWY2ysx+CXwPsOg8JXPgeGAtdz83OoxwTuC5zws8twDufo+7/xdpn4Fng+PkYA0zWyo6RF2oASiZmS1Cele2b3SWDrgT2NTdP+PuL0WHEQAuJmYy4BPAXwLOKwNw91NJ8wNOQY9mbhIdoC7UAJTIzMYBfydtY9tNZpCe51/P3f8ZHUbeVKytcETAqY/Qug55cffn3P1/gM1J+2z0Kt0GaJDpFl45zGwF4HLS5JxucjWwr7vfHR1EBlasgX47sHpFp7wHmOju2sQmU2Y2H/A14FBggeA4VbvW3XtlefW2qAEoQfGM/2XAW6KzlOhF4BDgRE30yp+ZbURaNa7TF/vXgPe5+3UdPo+UoHgu/hfAltFZKvQ6sKhGqIanBqBNZrY26TG/blrTfxLwWXd/PDqINM7M9gBO6/Bp9nT30zt8jp5kZqOBMaR7+E1/DNWom9nuwI/pruvUUDZ3dy2jPIxuX4u+o8xsQ9IkrG55xv9xUuGfFB1Emufup5vZW4HvdugUh6n4l8PMlgA+DOxA2gVwOWBJ2nhqyGz2SwdrEnppztemaB+FYakBaJGZvZc023+R6CwlcOBE4BB3z2F9eWmRux9pZveRZoOPKemwU4G93f3/SjpezzKzdUgN2rZ07vprdN/jx83SRMAG6BZAC8xsa9Iw+YLRWUpwF7Cfu18dHUTKY2brAScAG7V5qOuAA9z95vZT9a7iCaGjgI/TW+/Eo7wELO7us6KD5Ew/iE0ys51IC6B0Q/E/jvRon4p/l3H3m939XcCuwL0tHOJeYFd3f5eKf3uKCZo3AHuga25VxgJrR4fInUYAmmBmnwB+A4wMjtKuV0nv+s+IDiKdZ+nm8IbATqR7zqsCo+f6steB+4FzSaNb1+vpj/YVe4GcQu89ipeDz7r7cdEhcqYGoEFF8T+V+nfwdwM7u/ud0UEkRtEQLEGaeAZpV8EpKvjlMrP3A5eguVZRznL33aND5EwNQAOKYf/fU/93/mcD+7j7K9FBRLqZma1Kmj+xeHSWHvaYu3fT2iylq/u72Y4rJvydRb2L/+vAF9x9NxV/kc4qRljOQMU/2vLFCq0yCDUAQyge9ZsEzBedpQ2PAe8t9hAXkc77KGnOhcTT44BDUAMwiGKRn/Op92z/S0mz/K+NDiLSC4rV/I6MziGzqQEYghqAARTL+15MfRf5ceA7wDburj3CRaqzJbBydAiZTQ3AEDQ7dS7Fxj6XUt/lfacAn3D3i6KDiPSgHaMDyBzebmaLu/vz0UFypBGAfooJI5dR3w0zrgfeqeIvUj0zGwFsH51D5mDAe6JD5EoNQKFYqvNy6rul7y+ATd39keggIj1qeer75qGbrR8dIFe6BQCY2SLARcAq0Vla8Cqwv7v/LjqISI+bEB1ABqQlgQfR8w2AmY0iLfLzjugsLXiGNNHvpuggIsL46AAyII3KDKLnGwDgeGDr6BAteBjYyt3viw4iIkB9nxrqdgtFB8hVT88BMLOvA/tG52jB7cAmKv4iWXkqOoAM6NXoALnq2Qag2KWrjgt2/IO0st/j0UFEZA5PRgeQAU2JDpCrnmwAzGwz0ra+FhylWRcAW+qZVpEsPRodQAZ0R3SAXPVcA1As9HMOMH90liadDuzo7tOig4jIvIpVN2+OziHzuDE6QK56qgEws6VJj/vVbZW/Y4BPuvsb0UFEZEjnRQeQOcwgre8iA+iZBsDMFiT9ctZtne6vu/tB7u7RQURkWH+KDiBz+LO7vxgdIlc90wAApwDvjg7RhJnAPu7+g+ggItIYd7+VdItR8qBt0IdgvfDG0sy+DBwdnaMJrwG7u7suJCI1Y2ZrkB7VHRmdpcdd7u4fiA6Rs64fATCz9wFHRedowkuk1f1U/EVqyN3vRu88o70GfDY6RO66ugEwswnA2dRnxcOngPe5+5XRQUSkLV8D/hodood9rWjEZAhdewvAzOYDrgA2Do7SqAdJS/s+EB1ERNpnZksA11HPTcbq7ER3PyA6RB108wjAj6lX8d9UxV+ke7j7FGAT4F/RWXrIicCB0SHqoisbADPbE/h0dI4GPUV65/9EdBARKZe7PwVsDpwVHKXbvUF6ZPoAPTLduK67BWBm6wL/BBaMztKAl0j3/P8dHUR6Q7H99TjS3vUTgFnA48Bk4Al3nxkYr6uZ2dbAD4B1o7N0mRuAA9xdK/41qasaADNbnLTs40rRWRrwGmm2vyb8SUcV96K3Az5M2vp6sG1rXyKtlHkecL67v1RNwt5hZgbsAuxG+rfQVrWtu5L0tMUkvetvTdc0AMUv1gXAttFZGjAT2EWP+kknmdkiwEHFx8JNvvwF4HvAz9x9etnZBMxsAeD9wNtIozHjSf9ONsgHQ/x/dXtNM18/C3gZeAa4F7iGtMLfI418n2Vw3dQAfI36PO+/j7v/KjqEdC8z2xU4FlimzUM9Qvp5vaz9VCKSk65oAMxsfVJXODo6SwO+ruV9pVOKkbBvAYdT3nbXM4GD3P2nJR1PRDJQ+wbAzMaQtuBcLTpLA45x94OiQ0h3Kor/qcAeHTrFse7+uQ4dW0Qq1g2PAf6EehT/04GvRIeQrnYYnSv+AJ8t9tUQkS5Q6xEAM9uJemy/eQGwo7u/ER1EupOZ7Uj6XShr2H8ws4APufvFHT6PiHRYbRsAMxsP3AosGZ1lGP8AtnT3adFBpDuZ2cLA/cCyFZ3yUWA1d3+tovOJSAfU8hZAca/zNPIv/rcDH1bxlw77KtUVf4C3oJ3WRGqvliMAZvZV4IfROYbxMLCJuz8eHUS6l5ktDTxE9QvKPA+81d1fqfi8IlKS2o0AmNl6wHejcwzjGdL6/ir+0mk7ELOa3OLABwPOKyIlqVUDUDzydwYwX3SWIUwlLfF7X3QQ6QnbB557x8Bzi0ibatUAAEcCa0SHGMb+7n5TdAjpfmY2P/CBwAgfNLORgecXkTbUpgEws42Az0fnGMYJ7v7b6BDSM95K7K6Xi5J2FhSRGqpFA2Bmo4GTyTvvDcAXo0NIT5kQHYA8MohIC3IuqP19DVg7OsQQpgC7atc0qdj46ACoAZAuYcniZjYqOktVsv+LmtnqwDejcwzBgT3c/eHoINJzxkYHII8MIg0r1pFZF9ga2ITUSC9H2jlzFDDLzJ4DngCeJI3uXgJc4+6vh4TukKwbgOIf6iRg/ugsQ/ieu18YHUJERAZnZu8CPgNsxdALZ40Ali4+1im+/hvAy2b2V+AUdz+3w3ErkfstgP2BzaJDDOGvpK1XRUQkQ2a2oZldCFxL2iyr1VUzFyGtu3GOmd1oZh8uK2OUbBsAM5sAHBWdYwiPA7u7+8zoICIiMiczW8bMzgWuA7Yt+fDvBM4zs+vN7O0lH7sy2TYAwPHke3/xDeAj7v50dBAREZlTMdx/I51fKGsD4F9m9pEOn6cjsmwAzGxXYlc4G87B7v6P6BAiIjInM9sPuApYvqJTLgScbWY/qtvCWNk1AGY2FvhZdI4h/NHdj4kOISIiczKzg4ATiVku/iDglIDztiy7BgA4jPRIRo7uA/4nOoSIiMzJzLYkft7YHmb25eAMDcuqATCzVYEvROcYxDRgF3d/KTqIiIi8ycxWBs4CchiC/6GZbREdohFZNQDAMeS709+B7n5rdAgREXlTcd/9T8AS0VkKI0lzAlp93LAy2TQAZrYVkOtzlSe5+6nRIUREZB57A++IDjGXJcl7BVsgkwagWHv5x9E5BnEf+e9CKCLSc8xsAeB/o3MMYr/i1kS2smgAgAOBtaJDDMCB/dz9teggIiIyj8+R74ZUo4HvRIcYSngDYGZLAkdE5xjEr9z9iugQIiIyp+Le/9eicwxjdzNbMTrEYMIbAODbwOLRIQbwJPDV6BAiIjKgTYGlokMMw0j7B2QptAEws4mkDX9y9Hl3fyE6hIiIDCjn1WL7yzZn9AjAT8jjuc25nefuv48OISIig8r2nfVc3mtmi0WHGEhYA2Bm2wI5LpbwMmnPaBERyZCZrQKsEp2jQaPIs9aFjgB8O/DcQznE3R+LDiEiIoNaITpAk7LMG9IAmNkOpG0Uc/NP4BfRIUREZEjjowM0Kcu8lTcAZmbk+djfDGBfd/foICIiMqQsC+oQsswbMQKwM/kt2wjwfXe/MzqEiIgMa1x0gCZlmbfSBsDMRpDnu/+7gO9FhxARkYZMiw7QpCzzVj0CsBv5LfnrpKH/GdFBRESkIY9HB2hSlnkrawCKZRu/VdX5mnCCu/8jOoSIiDQsy4I6hCzzVjkCsAewWoXna8Rk4JDoECIi0pQsC+oQssxbSQNgZqOBw6s4V5M+4+4vRYcQEZGm3A28ER2iCbdHBxhIVSMAewMrVXSuRk1y93OjQ4iISHOKfVquis7RoGdJa8xkp+MNQHHv/+udPk+TZpJfJhERadx50QEadL67z4oOMZAqRgB2AVas4DzNOM3d74kOISIiLavLCG62OatoAL5SwTmaMYM81yIQEZEGufvDwNXROYbxNHBJdIjBdLQBMLP3kd+a/79090eiQ4iISNsOjQ4wjCPdPctFgKDzIwC5vfufChwZHUJERNrn7lcBF0bnGMTDwAnRIYbSsQbAzNYAPtSp47foWHd/MjqEiIiU5hukFV1zc3juK8x2cgTgIMA6ePxmvQQcFR1CRETK4+63AD+KzjGXS4DfRYcYTkcaADNblrTyX06Odvcp0SFERKR0Xwcuiw5ReBDYPddH//rr1AjAZ4H5O3TsVjwL/Dg6hIiIlM/dZ5I2m3s4OMqrwI7u/nxwjoaU3gCY2RjgwLKP26YfuPvL0SFERKQz3P05YEfgmaAI04E93P22oPM3rRMjAHsDS3bguK16HDg+OoSIiHRWMR9gfeCGik/9GLCZu0+q+LxtKbUBMDMDvljmMUvw3ZyfwxQRkfK4+6PAZsCpFZ3yKmB9d7++ovOVpuwRgPcDq5Z8zHY8BJwcHUJERKrj7q+5+17Ax0l1oBOeJ20nv4W7P92hc3RU2Q3AviUfr13/6+6vR4cQEZHqufsZwBrA54CnSjrsNNIj5Su7+1HuXqdtiedQWgNgZksBO5V1vBLcRQ2ewxQRkc5x9xnufiywCrAfaeXA6U0eZhZpS9+DgVXd/ZBiS+JaG1XisfYE5ivxeO06vHg0REREepy7vwqcBJxkZgsD2wCbA8sD44FxwDKkof3HgSeKz9cCf67rMP9QymwAchr+vwn4Y3QIERHJj7u/Avyh+OhZpdwCMLPNSPdZcvEDd89xbWgREZEslDUHIKd3/08AtXoWU0REpGptNwBmthiwSwlZynJSnWdlioiIVKGMEYBPAAuWcJwyzAR+GR1CREQkd2U0ADkN/5/n7pOjQ4iIiOSurQbAzN4FrFNSljJozX8REZEGtDsCsGcpKcpxL3B5dAgREZE6aLkBMLOR5DX57wQ9+iciItKYdkYANietmpSDacBvokOIiIjURTsNwEdKS9G+M939+egQIiIiddFSA2Bmo4CdS87SDk3+ExERaUKrIwBbAEuWGaQN17v7jdEhRERE6qTVBiCn4X+9+xcREWlS0w2AmY0GdupAllZMAc6KDiEiIlI3rYwAbAUsXnaQFp3i7q9FhxAREambUS285qOlp2iNAydEhxARERmMmY0B3kp6bH7Z4vNI4GngqeLzo+7+UtXZmmoAzGx+YIcOZWnWpe5+f3QIERGRPmZmwDuArYuPTYD5hnnZLDO7Drik+LjO3Wd2NCjNjwBsA4ztRJAWaPKfiIhkoXg8fk/gUGDlJl8+Anh38fEt4Ckz+yHwC3efVmrQuU7ajFze/T8JnB8dQkREepuZjTKzvYB7gF/RfPEfyLLA0cBDZvZFM1uwhGPOo+EGoBjW2LYTIVpwXhXDIyIiIoMxs3HAVcAplFP457Ys8GPgZjNbo+yDNzMCsC6wXNkBWnRudAAREeldZvYe4EZg4wpOtzrwLzMrdRS+mQYgl3f/r6Btf0VEJIiZfQr4GzCuwtOOBSaZ2eFlHbCODcDF7j49OoSIiPQeM9sO+CXDz+zvyOmBI8zswDIO1lADYGaLUc0wRyM0/C8iIpUzszWB39HeTrpl+KmZbdruQRr9S2xFWrgg2hvABdEhRESktxRvhM8lj0fhRwN/MLPl2zlIow1ALsP/f3f356NDiIhIz/l/wNuiQ/SzLOlWRMuGbQCKx/+2aeckJdLwv4iIVMrMVgP2is4xgG3N7L2tvriREYD10ON/IiLSu75Da3vnVOH7rb6wkQYgl+H/W9z94egQIiLSO8zsncCu0TmG8J7iyYSm1akB0Lt/ERGp2j6kx+9yYy4yMgAAIABJREFUdkArLxqyATCzhUibE+RADYCIiFSmmAO3fXSOBmxR1OumDDcC8C7yePzvUXe/KTqEiIj0lPWBCdEhGrAAaevhpgzXAGzSWpbS6d2/iIhULZcdcBvRdFY1ACIiIgPL5RZ4I5perXfQBsDMRpDHX/5F4MroECIi0nOq3OynXeObfcFQIwATgUVbz1KaC9399egQIiLSc5ouqoEWMrOmlikeqgF4T5thyqLhfxERqZSZLQAsHp2jSU2NWAzVAORw/38mcFF0CBER6Tl1K/4ASzTzxbk3AHe4+0vRIUREpOc8C3h0iCY908wXD9gAmNk4YKVS4rTnX9EBRESk9xRzz56NztGkx5v54sFGAHJ49w9qAEREJE5TBTXYC+4+tZkX5N4AXBcdQEREetZj0QGa0HTWwRqAHJ7/fwW4IzqEiIj0rCuiAzThb82+YJ4GoFgAaJ1S4rTnBnefFR1CRER6Vp0eQ28660AjACsDY9rP0jYN/4uISBh3vw+4KzpHA16ghRVzB2oAcnj3D5oAKCIi8eowCnChu7/R7IvUAIiIiAzuF8D06BDD+HErL8q1AXjc3SdHhxARkd7m7v8BTojOMYQ/uvsNrbxwoAZg7TbDlEHv/kVEJBdHkp5My81M4LBWXzxHA2BmCwGrtJuoBGoAREQkC+7+DPCj6BwD+LW7393qi+ceAZgIWHt5SqEnAEREJCdH0sJM+w66A/hyOweYuwHI4f7/LKCl+xkiIiKdUMyy3xX4T3QW0mN/O7p7W7cl5m4Acrj/f6e7vxwdQkREpL/iVsBOwLTAGLOAj7n7/e0eKMcRAA3/i4hIltz9JuDDwJSA008DPuHuF5VxsBxHADQBUEREsuXulwMbALdVeNr/AJu6+5llHXB2A2BmywBLlHXgNqgBEBGRrLn7Q8DGwO8rON0VwAbF6ENp+o8ArFTmgVs0Fbg9OoSIiMhw3P1Vd/8IsDVQanEu3A/sBry/mH9QqtwagNvdfWZ0CBERkUa5+19ItwR2A+4t4ZCTgQOBNd39bHf3Eo45j1H9/pxDA/BwdAAREZFmFUX6bOBsM1sP2KH4WLfBQ9xL2njoXOAad5/VkaD95NYA5PB8pYiISMvc/WbgZuB/zewtwOrAOGB88TESeBx4ovj8QBmP9TUrtwbgkegAIiIiZXH3R4FHo3MMpP8cgJXDUrxJDYCIiEgFRgCY2UjgLcFZQLcAREREKtE3ArA8MDoySEEjACIiIhXoawByuP//kru/EB1CRESkF+TUAGj4X0REpCI5NQAa/hcREalITg2ARgBEREQq0tcALBeaItEIgIiISEX6GoClQlMkagBEREQq0tcALBmaItEtABERkYrk1ABoBEBERKQiI8xsAWBMcI7XSZsiiIiISAVGkMe7/8eq2PpQREREklwaAA3/i4iIVCiXBkATAEVERCqUSwOgEQAREZEKjSKPNQBWMLO9OnwOB14EniRNOJzs7m90+JwiIpIxMxsFTCAtiDcOWBSw0FCNmQU8S6pnT7p70xPpR5HHCMCexUeVXjCz84FJwEXuPq3i84uISAAzWxDYFtgJ2A5YLDZR+8zsYeBc4BzgqkYm1udyCyDCYsAngD8CD5jZ/kUnKCIiXcjMRpnZ/sADpGv/J+iC4l9YEfgC8DfgJjPbZrgX9HID0N844ATgdjPbKDqMiIiUq7i230661o8LjtNp7wAuMrPLzGz8YF80AlioukzZWx240sz2iA4iIiLlKK7pV5Ku8b1kC+A6M1t/oP9zBDB/tXmytwBwmpkdGh1ERETaU1zLTyNd23vRBODvZrbl3P/HCGC+6vPUwnfN7CPRIUREpDXFNfy70TkysCDwf2a2Wv//qBGAoZ1iZutFhxARkeYU1+5TonNkZDHgPDMb2/cf1AAMbQxpwoiIiNTLCcRvdJeb1YHD+/6HbgEMbyMz2yU6hIiINKa4ZuuJroF91sxWBI0ANOpIM6vDylAiVfuQmY2MDiHSp7hWHxmdI2PzA0eAGoBGrQYM+BiFSI/bBThVTYBkZEPSNVsGt7OZLaBbAI3bPjqASKY+jpoAycdO0QFqYCHg/RoBaNx20QFEMqYmQHKxQ3SAmthODUDjem0FKZFmqQmQUGY2AnhbdI6aWF23ABo3xsy6ZdMIkU5REyCRliHtcivDm6ARgOYMuqmCiMymJkCi6BrduPEjohOISMteig4wBDUBInkbMwKYHp2iRh6PDiDSz2PRAYahJkCqpmt046aPAGZEp6iJqe7+QnQIkX4mRwdogJoAqdLTwBvRIWpihkYAGndPdACRufwHeCU6RAPUBEgl3H0WcF90jpqYrgagcedHBxDpz91fBy6NztEgNQFSlXOjA9SEbgE04bzoACIDuCA6QBPUBEgVJkUHqAndAmjQvcCN0SFEBnAO9bgN0EdNgHTa9aRrtgxNtwAadKi7e3QIkbm5+3PA/4vO0SQ1AdIxxbX60OgcNaBbAA24zt3/EB1CZAhHA09Gh2iSmgDpmOKafV10jszpFsAwpgIHRIcQGYq7vwrsB9RtlEpNgHTSAaRruAxMtwCGsbe73xwdQmQ47v5n4JvROVqgJkA6orh27x2dI2O6BTCEw9z9/6JDiDTK3Y8EzozO0QI1AdIRxTX8sOgcmdItgAG8BuxZXExF6mZPoI5zVtQESEcU1/I9Sdd2edP0EcCr0Skycg/wPnc/PTqISCvc/Q1gd9QEiMxWXNPfh1Z07e/VEcBz0Sky8ARpwshEd9fMUak1NQEi8yqu7RNJ1/onguPk4LlebgBeAH4L7Ays4u4nFhdOkdpTEyAyL3d/w91PBFYhXft/S6oFvei5UeTRAJwG/K3D53DgRdLz0k8Ak1XwpZu5+xtmtnvxP3cJDdO8jwOY2SfdfWZ0GOku7j4N+BPwJzMbBUwAlgPGAYsC1uEI/0WalxDpuVHAs8EhAB5x999EhxDpNmoCRIZWvBF8pPiohJmtXNW5hvBsLrcAVogOINKtdDtAJDs51Lxs5gC8NTqASDdTEyCSlRxqXjYNQA7dkEhXUxMgko0cat5zBiwATAsO8jqwgLvPCs4h0vWKSU9nUr85AQC/AzQnQGrLzEaQFiUaHRxlwRHu/hrxGyaMJs2+FJEO00iASKhxxBf/qe7+2ojif+g2gEgPURMgEiaHWvccQE4NQA6TIkR6hpoAkRA51Lo5GoAc1gLIoSsS6SlqAkQql0OtexbebACeDAzSJ4dvikjPURMgUqkcat2T8GYD8FBgkD45DIuI9CQ1ASKVyaHWPQR5NQA5dEUiPUtNgEglcqh12TUAOXRFIj1NTYBIx+VQ67JrAMaa2WLRIUR6nZoAkc4oatzY6BzM1QA8RlqNL1oOQyMiPU9NgEhH5FDjXifV/NQAFMtqPhqZqJDD0IiIoCZApANyqHGP9i2lPaLff3wwKEx/OXRHIlJQEyBSqhxq3Oxa378ByGEeQA7fHBHpR02ASGlyqHGza31uDUAOwyMiMhc1ASKlyKHGZdsArBgdQEQGpiZApG0rRgcg4wZgon5BRfKlJkCkNcXP3cToHGTcAIwhj2+QiAxCTYBISyaSaly0eRsAd38amBISZ07vig4gIkNTEyDStBxq25Si1gNzjgAA3FZxmIFsFB1ARIanJkCkKTnUtjlq/NwNwK0VBhlMDl2SiDRATYBIw3KobXPU+BxHANYys4WjQ4hIY9QEiAytqGlrReegBiMAI4ANokOISOPUBIgMaQPmrbcRhhwBuB3w6rIMKoehEhFpgpoAkUHlUNOcVONnm6MBcPdXgQeqTDSIHCZLiEiT1ASIDCiHmvZAUeNnG2hIIod5ADl0SyLSAjUBIvPIoabNU9sHagBymAcwwczGR4cQkdaoCRBJilo2IToHA9T2XBsAyKNjEpEWqQkQAfKpZWoARKQ6agJEsqllDTUADwJTO59lWDlMmhCRNqkJkB6XQy2bSqrtc5inAXD3WeQxCrCBmeXw3KSItElNgPSiooblsK7NrUVtn8NgBfbaDodpxCLAmtEhRKQcagKkB61JqmXRBqzpgzUA/+hgkGbkcu9EREqgJkB6TC41bMCargZARCqlJkB6SC41rPEGwN2fAB7qaJzG5DB5QkRKpiZAekQONeyhoqbPY6hJdjmMAkw0sxzun4hIydQESDcratfE6BwMUctzbwBGAVtHhxCRzlATIF1sa1INi9ZSA/DPDgRpxY7RAUSkc9QESJfKpXYNWsvNfeDdf4vnF6cAi3YoVKOeB5YpLhIi0qXMbBRwJrBLdJYW/A74pLvPjA4i8Yqf5aeBxYOjvAgsMdAaADDECEDxghzWA1gceG90CBHpLI0ESBd5L/HFH+DawYo/DH0LAPKYBwD5DKWISAepCZAukUvNGrKG16UB2D46gIhUQ02AdIFcataQNXzQOQAAZrYQ6R5CDj/M67n7v6NDiEg1NCdA6sjM1gVujs4BzAQWdfdXB/uCIUcAihfmMA8A8hlSEZEKaCRAaiqXWnXtUMUfhr8FAHBRSWHatUN0ABGplpoAqaFcatWwtbtODcC6ZrZCdAgRqZaaAKmLokatG52jUEoDcDPwZPtZSpFLZyUiFVITIDWRS416kgbmIQzbAHiaJXhxGYlKkMs3V0QqpiZAaiCXGnWxDzXDv9DICADkcxvgvWaWw+IKIhJATYDkqqhNuSxa11DNbrQB+AvpkYJoo4APRocQkThqAiRTHySPzX9mkmr2sBpqANz9BeCadhKVKJdHLEQkiJoAyVAutemaomYPq9ERAMjnNsA2ZjZ/dAgRiaUmQHJR1KRtonMUGq7VdWwAFgbeHx1CROKpCZBMvJ9Um3LQkQbg3+TzOGAuQy0iEqwLmoDjokNI23KpSU+SanVDGm4AikcKchkF2F5ds4j0qXkTsL+ZfTo6hLSmqEW5bP5zUSOP//VpZgQA4Nwmv75TlgO2iw4hIvmoeRPwUzPL5REyac52pJqUg6Zq9JC7Ac7zxWmiw9PA2CZDdcJf3H3r6BAikpca7yJ4G7Cuu8+KDiKNM7NLgK2icwAvAcu4+/RGX9DUCEBx4FxGAbY0s1WjQ4hIXmo8ErA28LHoENK4ogZtGZ2jcG4zxR+avwUAcHYLr+kEAw6IDiEi+alxE3CEmVl0CGnYAaRalIOma3NTtwAAzGw08BSQw5K8U4AJ7v5adBARyU9Nbwds5O7XR4eQoZnZAsBkYInoLMDzwLLu/nozL2p6BKA4waRmX9chSwC7RYcQkTzVdCRAE5zrYTfyKP4Ak5ot/tDaLQCA/2vxdZ2gx2dEZFA1bAK2jQ4gDcmp9rRUk5u+BQCzh9WeBJZs5aQdsIG73xgdQkTyVaPbAc+6+9LRIWRwZrY+cEN0jsJzwHJFo9uUlkYAihP9sZXXdkhOnZiIZKhGIwFLFs2K5CunmvPHVoo/tH4LAPK6DbB7sReziMigatIEGLBUdAgZWFFrdo/O0U/LtbidBuAK0qJAOVgQ2Cs6hIjkryZNwLToADKovUg1JwdPk2pxS1puANx9Jnn9Ah2g52dFpBGZNwHT3f3F6BAyr6LG5LT+zB+KWtySdkYAAE5r8/VlWg3YIjqEiNRDxk3AU9EBZFBbkGpNLtqqwW01AO7+L+DWdo5RspwmZohI5jJtAv4VHUAGlVONubWowS1rdwQA4KQSjlGW7c1sQnQIEamPDJuA86MDyLyK2pLLtr9QQu0towH4LflMWBkJ7BcdQkTqJaMmYBZwYXAGGdh+pBqTg2mk2tuWthsAd3+B+F+a/vbVM7Qi0qxMmoAz3f3ZwPPLAIqasm90jn7+UNTetpQxAgB53QYYB+wUHUJE6ie4CXgdODzgvDK8nUi1JRel1NxSGgB3/ztwdxnHKskheiRQRFoR2AT80t0frPicMoyilhwSnaOfu4ua27ayRgAgr1GAdwI7R4cQkXoKaAL+DXytonNJc3Ym1ZRclFZrW9oMaMADmS1F2ht5vlIO2L67gLXbWSRBRHpbRRsIPQ1s6O7/6eA5pAVmNhK4DVgzOkthBjChrHkipY0AFIEmlXW8EqwJfDw6hIjUV7+RgFM6dIqngQ+r+Gfr4+RT/AEmlTlJtLQRAAAz2wK4rLQDtu8hYHV3fz06iIjUm5l9DjgGKOspoxuBndz90ZKOJyUys9HAPcBK0Vn6+YC7X17WwcqcAwDwV+D+ko/ZjpWAfaJDiEj9ufvPSUvB3tbmoWYAPwE2VfHP2j7kVfzvJ9XY0pTaAHgaTvhJmccswWFmlsvOTSJSY+5+FbAusAfQ7Iz9mcBvgNXc/Uvu/lrJ8aQkRc04LDrHXH7iZQ7ZU/ItAAAzGwP8B1iy1AO35yvufnR0CBHpHsXjYRsA2wHbAqsCi/f7khnAk8A1wJ+Bi9x9StU5pXlmdhDwo+gc/TwHvNXdp5Z50NIbAAAz+w55dU/PAiu7+8vRQUSke5nZAsBywCvAc2W/Y5POM7NFSKM7S0Vn6ee77v7Nsg9a9hyAPscC0zt07FYsBXwpOoSIdDd3f83dH3b3Z1X8a+tL5FX8p5Nqauk60gC4+1PA6Z04dhsOMrMlokOIiEieihpxUHSOuZxe1NTSdWoEAOBoIKcOeCxwcHQIERHJ1sGkWpELJ9XSjujIHIDZBzf7M2mCTC6mAqu4+5PRQUREJB9mthzwADAmOks/57v7hzt18E6OAEBesygh/cMeGh1CRESycyh5FX/ocA3t6AgAgJldT3pUJhczSM/hPhIdRERE4pnZCsC95LOXDcAN7r5hJ0/Q6REAyG8UYD7gW9EhREQkG98ir+IPFdTOKkYARpKWMFyxoydqzkzg7e5+T3QQERGJY2arA3cAI6Oz9PMwsGqnd7Pt+AhA8Rf4fqfP06SR5JdJRESq933yKv4A369iK/uOjwBAtrsqAezo7udGhxARkeqZ2Q7AOdE55lLZLrZVzAGg+It8u4pzNek4M8vpmU8REalAce0/LjrHAL5d1Rb2lTQAhdNJsyxzMgHdChAR6UXfJ9WAnNxLhavoVtYAFPczjqjqfE040MzeEx1CRESqUVzzD4zOMYAjqrj336eSOQCzT2Y2ArgNWKuykzbmTmA9d58RHURERDrHzOYDbibPOrS2u8+q6oRV3gKg+Ivl+Az+WsAh0SFERKTjDiG/4g/wrSqLP1Q8AgBgZkbqvt5R6YmHNwN4h7vfHR1ERETKZ2ZrALeQ36I/t5BGoSstyJWOAAAUf8EcRwHmA04qGhQREekixbX9JPIr/pDe/Ve+e27lDQBA8ez9DRHnHsamwP7RIUREpHT7k67xubkhaj2aym8BzD6x2bbAhSEnH9qLwFru/nh0EBERaZ+ZjSdNsls0OssAPujuF0WcOGQEAKD4C18edf4hLAocGx1CRERKcyx5Fv/Lo4o/BI4AAJjZRODf5LcOM8B/u/uk6BAiItI6M9sJ+FN0jgHMBNZ199ujAoSNAAAUf/ETIzMM4Vgzy7FjFBGRBhTX8FxHdE+MLP4Q3AAUDgeejw4xgPHAD6JDiIhIy35Aupbn5nlS7QsV3gC4+3Pk+VggwP5mluOsURERGUJx7c71qa5vFbUvVOgcgNkhzEaRFkLIcXWmu0gLNEyPDiIiIsMzs/lJC86tGZ1lAHeSFp17IzpI+AgAQPGN+FJ0jkGsCRwdHUJERBp2NHkWf4Av5VD8IZMRgD5mdh7w4egcg/i4u58RHUJERAZnZrsDuV6r/+zu20eH6JNbA7AqcAd5LtX4KrCRu98ZHUREROZlZmsC1wMLRWcZwAzg7e5+f3SQPlncAuhTfGN+Gp1jEAsBfzSzhaODiIjInIpr8x/Js/gD/DSn4g+ZjQAAmNlY4B5guegsgzjb3XeLDiEiIm8yszOBXK/NTwKru/tL0UH6y2oEAKD4Bn0+OscQPmpmOecTEekpZvYZ8i3+AJ/PrfhDhiMAfczsXCCbyRJzeR14r7tfGx1ERKSXmdlGwN/Jc+4YwHnuvkN0iIHk3ABMID0vOTY6yyAeI60P8Gx0EBGRXmRmSwI3AW+NzjKIl0i7y06ODjKQ7G4B9Cm+YQdH5xjC8sAZZpbt91BEpFsV197fkm/xBzg41+IPGTcAhRNJQzu52hL43+gQIiI96DBgm+gQQ/g7+W52B2R8C6CPma1OWiZ4/ugsg3DgQ5F7OouI9BIz2xK4mHzfxE4nLfd7T3SQoeT6zZut+AZ+JzrHEAz4rZmtEB1ERKTbmdnypJX+cq5f38m9+EMNRgAAzGw0cCOwdnSWIVwPbOruM6KDiIh0o6IWXAlsHJ1lCLcB67v769FBhpNzBzVb8Y3cB5gVnWUIGwI/iQ4hItLFfkTexX8WsE8dij/UpAEAcPfrgJ9F5xjGgWb28egQIiLdxsw+Qt6LxAH8rKhVtVCLWwB9zGwM6VbAGtFZhvAqaZGgm6KDiIh0AzNbB7gaWCQ6yxDuJg39T40O0qjajAAAFN/Yj5F2VcrVQsDFZva26CAiInVnZiuRZvznXPxnAB+rU/GHmjUAAO5+M+n5z5wtDfzFzMZHBxERqSszWxa4FBgXnWUYhxW1qVZqdQugj5kZ6Ydii+gsw7iddDvg+eggIiJ1YmaLAlcA6wZHGc7lwJZew2JaywYAoHh3fSuwZHSWYfyD9MMxLTqIiEgdmNkCwCXAe6OzDOM5YB13fzw6SCtqdwugT/EN3zc6RwM2AX5vZqOig4iI5M7MRgJnkX/xB9i3rsUfatwAALj7JOCk6BwN+BDw6+LWhYiIDO4kIMvtc+dyUlGDaqu2twD6FI8G3gysFp2lAce4+0HRIUREcmRmRwFfi87RgHtJ28HXatb/3Go9AgBzPBpYh5WXvmxmh0SHEBHJjZl9hXoU/9ep4SN/A6l9AwDg7jeS/6OBfb5vZp+KDiEikgsz2wv4YXSOBh1W1Jzaq/0tgD7F/fULgG2jszRgJrCLu58THUREJJKZbQ/8CRgZnaUBF5G2f++Kwtk1DQCAmS1OWip4pegsDXgN2Mbdr4wOIiISwczeS3rcb4HoLA14iLTUb9es69JVDQCAma0L/BNYMDpLA14C3ufu/44OIiJSJTN7B2lr30WjszRgGvCebrtWd8UcgP6Kf6ADonM0aCxp34BVooOIiFSluOZdTD2KP8AB3Vb8oQsbAAB3Pw04PjpHg5Yl7RuQ+1rXIiJtK651fwGWi87SoOOLmtJ1uu4WQB8zm4+0jvTGwVEa9SCwlbs/EB1ERKQTinf+fwFWjs7SoGuAzd095x1oW9a1DQCAmU0gTQpcNjpLg54iTQzsuqEmEeltxfysi6nX9Xh9d58cHaRTuvIWQJ/iH+6jwBvRWRq0LHClmb0vOoiISFmKa9qV1Kf4vwF8tJuLP3R5AwBQPGZ3cHSOJvRNDNwxOoiISLuKa9nFpGtbXRzcC49od/UtgP7M7CzSaEBdzAT2d/dfRQcREWlFserpidRjkZ8+Z7v7btEhqtD1IwD97A1cGx2iCSOBk7V3gIjUUXHtOpl6Ff9rSbWiJ/TMCACAmS1N+geuywzUPscAX+mW5SdFpHsVy7L/CPhydJYmPQi8292fiQ5SlZ5qAADMbDXSox1LRGdp0unA/7h7XSY0ikiPMbNRwK+BPaKzNGkKsLG73xsdpEq9dAsAgOIfeEdgenSWJu0BnGNmdVjiWER6THFtOof6Ff/pwI69VvyhBxsAAHf/O7AXULfhjw8BlxabHomIZKG4Jl1KukbViQN7FTWh5/RkAwDg7mcBh0bnaMEmwFVmNj46iIhIcS26inRtqptDi1rQk3puDsDczOyXwL7ROVrwMGnp4Puig4hIbzKzt5GW9l0xOEorTnL3/aJDRFIDkCatnA9sHZ2lBc+Qlg6+KTqIiPQWM3snaYGfpaOztOASYLten1Tds7cA+hQ/ALsCt0RnacHSpNsBH48OIiK9o7jmXEU9i/8twK69XvxBDQAA7v4ysC1Qx534FgJ+a2bHFzsgioh0hJnNZ2bHA78lXXvq5gFg2+Ka3/N6/hZAf2a2AvB34C3RWVp0PamzfSQ6iIh0l+L6+Htgw+gsLXoU2EzXxzdpBKCf4gfjA6RtIOtoQ+AmM9s2OoiIdI/imnIT9S3+TwEfUPGfkxqAuRSLQWxJWhmqjpYALjCzb5uZ/n1FpGVmNsLMvg1cQP1WT+0zBdiyFxf6GY5uAQzCzDYELgcWic7ShkuBj7n7s9FBRKRezGwp4AzSG6K6ehnYwt2vjw6SI71DHETxA7MdMC06Sxu2BG42s3dHBxGR+iiuGTdT7+I/jfSon4r/INQADMHdrwJ2AmZEZ2nD8qRHBT8fHURE8ldcK64iXTvqagawU3ENl0HoFkADzGwn0uzXOu1rPZCzgX3c/ZXoICKSFzNbGDgZ+Gh0ljbNJD0NNSk6SO7UADTIzD4BnEr9R03uBnZ29zujg0iMYr/2JYDliv/0JDDFdTHoWWa2FvBHYI3oLG2aBXzS3X8bHaQO1AA0oWgCfkP9RwJeBfZz9zOig0jnFQV/Q9LtrB2AVYHRc33ZDOA+4DzSlq7XqyHoDWb2MeCX1HNhn/5mknb2U/FvkBqAJhW3A84CumHVveOAg9x9enQQ6Qwz2wU4ElityZfeS9op7Q/lp5IcmNn8wNHAZ6KzlGAGsJuG/ZujBqAFZrY1MAlYMDpLCe4ijQZcHR1EymNm6wEnABu1eajrgAPc/eb2U0kuzGxT0rv+NaOzlGAaacLfJdFB6qbu97NDFD9o25CeMa27NUlPCfzCzBaNDiPtM7OPAFfTfvGnOMbVxTGl5sxsUTP7BWmWfzcU/5dJO6Kq+LdADUCLisdLtqC+Kwb2Z8ABwJ3FLQ6pKTM7lPS0x5gSDzsGOLs4ttRU8bt9J+l33YLjlGEKaZEfPerXIt0CaJOZrU1acW/Z6CwlmgR81t0fjw4ijTOzPYDTOnyaPd399A6fQ0pkZuOBY0mTQLvFU6TlfW+LDlJnagBKYGZy+XthAAAMeklEQVSrAZdR310EB/IicAhwomaD58/MNgKuBBbo8KleA97n7td1+DzSpuLpj/2BHwDddHvvUdLGPlrbv01qAEpSbJV5ObBKdJaSXQ3s6+53RweRgZnZKOB2YPWKTnkPMNHd36jofNIkM1sDOAnYNDpLyR4gDftrV78SaA5ASYofyM2AW6KzlGxT4BYzO9zMuuHRx270Kaor/hTn+lSF55MGmdl8ZnY46TrUbcX/FmAzFf/yaASgZGa2CGnZ4K2js3TAnaTRgH9GB5HEzBYkvSsaV/GpnwBWcfc6b5bVVczsPaR3/WtFZ+mAS0jL+3bDk1fZ0AhAyYof0O1Iv4jdZi3SI2HHmdnY6DACwLZUX/wpztmNTW7tmNlYMzuOdLuuG4v/SaRd/VT8S6YGoAPc/Q133w/4BtBtQywGfJr0yOAO0WEkdGb39oHnFqD4HbyT9DvZDY/29efAN9x9P8036QzdAugwM9uNtH/A/MFROmUS8HV3vyc6SK8pJv89AywWFOEZYFk9JVI9M1sd+D7d9Whff9NJ6/qfFR2km2kEoMOKH+At6Y4FgwayE3CHmf26eBJCqjOBuOIPsDRv7igoFTCzFczs18AddG/xn0J6xl/Fv8PUAFTA3f8ObAw8GJ2lQ0YCewP3mtnPzUxFoRo5fJ8nRAfoBWa2nJn9nLRJ097Uf0fSwTwIbFxcM6XD1ABUpFi04t3AtdFZOmg+4LPAA2Z2lJktER2oy0VM/pvb+OgA3czMljCzo0hPenyW7tiFdDDXAu/WAj/VUQNQIXd/Bng/aa32bjYG+BrwULF+wCLRgbpUDqu7LR4doBuZ2SLF8/wPkX6XytzbIUdnA+8vrpFSETUAFXP3ae6+G3AQ0O0zW8cCRwAPmtlBxTPrUp4cZn3nkKFrmNmCZnYQaSj8CNLvUDd7AzjI3XfTmhLVUwMQxN2PAT5A2tSi2y0F/Ai438wONLPR0YFEcmJmo83sQOB+0u/KUsGRqvAUaU3/Y6KD9Co1AIHc/UpgfeCa6CwVGQ8cD9xjZnuaWbdOZBJpiJmNNLM9SfsrHE/vzKm4Bli/uAZKEDUAwdx9MrA56Ze/V6wEnArcZma7FLuWifQMS3YBbiP9LqwUHKlKxwObF9c+CaQGIAPuPsPdPwN8Euil+2BrkvZNuMHMdv3/7d17rNd1Hcfx50tRBMsQmJeZUUZGBihauEBXJjLM8ghibtXyktAaM7Oc9UeS1OYWkbU2N/MyzawtLyhdBFKWOamJNElJwZlcEinihKGCXOLdH5/v6ZwDJzjAOefzvbwe23e/3zl/vf74/r6f9/dzLTa2MastSf0kXQIsJd37H8gcqS9tBS6LiBkRsT13GHMBUCoRcQ8wjjTzt0lOB+4D1kqaJclry61WJJ0gaRawlnSvn545Ul9bBYwrnnFWEi4ASiYilpHmBczPnSWD44GZwBpJcyVN8PCAVVXRzT9B0lxgDeneLsPeDX1tPmm8f1nuINaZC4ASiohNwAXA14EdmePkcChpm9NHgRWSrpXk9eZWCZKOlnQtsIJ0D0+mvjv37c0O0jPsguKZZiXjAqCkIplN2kK4yTtjnQzcDKyTdKekM3IHMuuKpDMk3QmsI92zJ2eOlNOLpC19Z/uwqPJyAVByEfEnYAzpTOwmGwBcSZowuETS5ZKOyB3Kmk3SEcW9uIQ0se9K0r3aZLcDY4pnl5WYC4AKiIgtETEdmAK05s5TAh8G7iL1CsyRNDx3IGsWScMlzSG97d9FuiebrhWYEhHTI2JL7jC2by4AKiQiHgJGA4tyZymJwaQtlV+UtFBSizcXst5SbNrTImkhqYv7a6R70NIzaXTxjLKKcAFQMRHxKnAe6YAQr6VNBEwEHgZekfRjSedL6p85l1WcpP7FvXQr8ArpHpuIz0Bos530LDqveDZZhXjjlQoqJtV8T9JjwM+BEZkjlclxwPTiekPSAtJD+xHPRLbukDQI+ARwETAJ8GmWXVsBfCYinskdxA6MewAqrPjhnQH8ENiVOU4ZvQ2YCtwLbJC0SNKXJQ3LnMtKRtI7Jc2Q9CiwAfgZcAlu/LuyC/gBaW2/G/8Kk1do1IOkscAdwKjcWSpiGTAPeLiqG5RIupw0AS2nKyLi7swZDoikUUAL6U3fy0u751ngqoh4OncQO3geAqiJiFhSrJG/HrgB8Pj33p1WXN+StAb4JWmo4ImI2Jk1mfWKYoLoeFKD3wKclDdRpbwFfAeY7d9HfbgHoIYkvZ+0Fvfs3FkqaBPwCKkYWBgRr2fO83+5B2DfJA0gTdq7CPgkMDRvokr6PTA9Ipq8IVktuQeghiJipaSPAl8EvgsclTlSlRwNfLa4dkpaDiwBniquFyLC8y1KStL7gLHAmcV1GnB41lDV9RqpR/EO7+ZXTy4Aaqr4wd4q6Vek87cvzBypivrRPlQwvfjf65KW0qEo8PKnPCQNpb2xH1tcXpffMx4Ero6I9bmDWO9xAVBzEbEOaCnOIP8RaZmcHbi3A+cUFwCS1pGKgbaiYGlEvJEnXj0V2z6PofPbvcfwe96rwIyIeDh3EOt9LgAaIiLuL3Yw+yZwDe4W7UknkLZpnlL8vUvS83QuCpZHxH8y5auU4gjok2lv6McCpwKH5cxVc9tIBxjd5OK1OVwANEhEbAaul3Qb6cf+qcyR6uoQYGRxfaH435ZiPsFqYC3pfPg1bd8j4rUMObORdCTwrt2uYcU1GhiUL13jzAWui4hVuYNY33IB0EAR8RJwoaSJpA09TskcqQkG0j5OvQdJm2kvDPYoEID1VZl8WLzBH8eejXvHv4dkC2htngOuiYjf5Q5ieXgZYMNJ6gd8CZhFmgFv5bSDtBd9x6JgGPD5nKGAe4osHRv3E/EQU5ltBGYCt3lYqtlcABgAkoYA3yYtHfSJemb1sxO4BbixaUNO1jUXANaJpJGkswXOzZ3FzHrMQuDaiHghdxArDx8GZJ1ExPKImEA6DW1p7jxmdlCeAiZGxCQ3/rY79wDYXklqIQ0NjM6dxcy67Rnghoj4Te4gVl7uAbC9ioh5pJ3wLgX8BmFWbsuBi0lH9brxt71yD4B1m6RDSHvkzwSGZ45jZu1WAjcC91Vluajl5wLA9luxdPAy0rHDwzLHMWuyl0lDdPd6SZ/tLxcAdsAkHQ5cBXyDtPbbzPrGauAm4O6I2JE5i1WUCwA7aEWPwKeB60gHtphZ73ga+D7wgN/47WC5ALAeJekcUiFwPqDMcczqIIBfA3Mi4oncYaw+XABYr5B0CvBV4HNA/8xxzKroLdJWyzdHxMrcYax+XABYr5J0LHA16byBwZnjmFXBRtKWvbdExD9zh7H6cgFgfULSQOAK4Ct4CaFZV1aSTue8JyK25g5j9ecCwPpUcVTsx4FpwGR8apw12zZgLulkvsczZ7GGcQFg2UgaSjrOdhowInMcs770PHA78NOIaM0dxprJBYCVgqSzSYXAVGBA5jhmvWErcD/pbX9x7jBmLgCsVCQNIq0cmIYPILJ6eJb0tn9vRLyWO4xZGxcAVlqSziQNEUwFjskcx2x/bAAeAH4SEUtyhzHrigsAKz1JhwIfI+02eDEwJGsgs661Ag8C9wGPe6c+KzsXAFYpxbbD55KKgcnA0XkTWcNtAh4iNfqLImJn5jxm3eYCwCpL0mHAROBSoAU4Km8ia4jNwDzgF8BvfRiPVZULAKsFSf2BSaRCYBJwfN5EVjPrgQWkhn9BRGzLnMfsoLkAsFqSdCrpQKJJwHigX95EVjE7gcWkRn9+RPw5cx6zHucCwGpP0lHABFIxMAk4MW8iK6m/kRr8BcBjEbE5cx6zXuUCwBpH0gdp7x04C59W2FTbgCdpf8v/S+Y8Zn3KBYA1WjF34EOkQmA8MA4vM6yrVuAPpK79J4GlHsu3JnMBYNZBcVjRCNoLgvH49MKqeonU2Lc1+CvCDzyz/3EBYLYPko4lFQJnAR8hbVE8MGso290W0pa7fyQ19osj4h95I5mVmwsAs/0k6RDgJFIh0HaNAt4LKGO0Jgjgr8BzpAa/7Xo5InblDGZWNS4AzHqIpCOBkbQXBG2fg3PmqrB/0d7Qt30uj4g3s6YyqwkXAGa9TNIxwLuB93TxOYzmrkLYBqwBVgGrd/+MiA3Zkpk1gAsAs4yKSYfHs2dxcBwwtMP1jjwJD0gA/wY2kmbebyTtpLeazo383z0pzywfFwBmFVAcgjSEVAy0fe7+/UhSb8LhxWd3vkN6E99efHbn+5ukRr3tat3te6sPxTErv/8CB8ablNRufTcAAAAASUVORK5CYII=;" parent="1" vertex="1">
          <mxGeometry x="150.25" y="265.5" width="39" height="39" as="geometry" />
        </mxCell>
        <mxCell id="LuCOD0VXo25CgxTOrGB0-7" value="Details1" style="text;html=1;strokeColor=none;fillColor=none;align=center;verticalAlign=middle;whiteSpace=wrap;rounded=0;" parent="1" vertex="1">
          <mxGeometry x="440" y="340" width="60" height="30" as="geometry" />
        </mxCell>
        <mxCell id="xmW9bThQL1s-JcA6EsOf-1" value="" style="rounded=0;whiteSpace=wrap;html=1;fillColor=#fffcf5;strokeColor=#d6b656;" vertex="1" parent="1">
          <mxGeometry x="1350" y="40" width="620" height="1190" as="geometry" />
        </mxCell>
        <mxCell id="xmW9bThQL1s-JcA6EsOf-2" value="&lt;font size=&quot;1&quot; style=&quot;&quot;&gt;&lt;b style=&quot;font-size: 16px;&quot;&gt;Deployer CI&lt;/b&gt;&lt;/font&gt;" style="text;html=1;align=center;verticalAlign=middle;resizable=0;points=[];autosize=1;strokeColor=none;fillColor=none;" vertex="1" parent="1">
          <mxGeometry x="1605" y="50" width="110" height="30" as="geometry" />
        </mxCell>
        <mxCell id="xmW9bThQL1s-JcA6EsOf-3" value="" style="rounded=0;whiteSpace=wrap;html=1;fillColor=#fffcf5;strokeColor=#d6b656;" vertex="1" parent="1">
          <mxGeometry x="2010" y="40" width="620" height="1190" as="geometry" />
        </mxCell>
        <mxCell id="xmW9bThQL1s-JcA6EsOf-4" value="&lt;b&gt;&lt;font style=&quot;font-size: 16px;&quot;&gt;Config CI&lt;/font&gt;&lt;/b&gt;" style="text;html=1;align=center;verticalAlign=middle;resizable=0;points=[];autosize=1;strokeColor=none;fillColor=none;" vertex="1" parent="1">
          <mxGeometry x="2275" y="50" width="90" height="30" as="geometry" />
        </mxCell>
        <mxCell id="xmW9bThQL1s-JcA6EsOf-5" value="" style="rounded=0;whiteSpace=wrap;html=1;fillColor=#fffcf5;strokeColor=#d6b656;" vertex="1" parent="1">
          <mxGeometry x="2680" y="40" width="620" height="1190" as="geometry" />
        </mxCell>
        <mxCell id="xmW9bThQL1s-JcA6EsOf-6" value="&lt;b&gt;&lt;font style=&quot;font-size: 16px;&quot;&gt;Foundation IAM CI&lt;/font&gt;&lt;/b&gt;" style="text;html=1;align=center;verticalAlign=middle;resizable=0;points=[];autosize=1;strokeColor=none;fillColor=none;" vertex="1" parent="1">
          <mxGeometry x="2895" y="50" width="160" height="30" as="geometry" />
        </mxCell>
        <mxCell id="xmW9bThQL1s-JcA6EsOf-7" value="Pre-merge" style="text;html=1;strokeColor=none;fillColor=none;align=center;verticalAlign=middle;whiteSpace=wrap;rounded=0;" vertex="1" parent="1">
          <mxGeometry x="194.5" y="195" width="60" height="30" as="geometry" />
        </mxCell>
        <mxCell id="xmW9bThQL1s-JcA6EsOf-8" value="" style="shape=image;verticalLabelPosition=bottom;labelBackgroundColor=default;verticalAlign=top;aspect=fixed;imageAspect=0;image=data:image/svg+xml,PHN2ZyB4bWxucz0iaHR0cDovL3d3dy53My5vcmcvMjAwMC9zdmciIHZpZXdCb3g9IjAgMCAxNiAxNiIgaGVpZ2h0PSI4MDBweCIgd2lkdGg9IjgwMHB4Ij4mI3hhOyAgPHBhdGggZD0iTTEwLDAgTDEwLDIuNjAwMDIgQzEyLjIxMDg4MTIsMy4wNDg4MTI4MSAxMy44OTIwODYzLDQuOTU2NDQ4NjcgMTMuOTk1MDAyNiw3LjI3NDQzMzExIEwxNCw3LjUgTDE0LDExLjI2NzYgQzE0LjU5NzgsMTEuNjEzNCAxNSwxMi4yNTk3IDE1LDEzIEMxNSwxNC4xMDQ2IDE0LjEwNDYsMTUgMTMsMTUgQzExLjg5NTQsMTUgMTEsMTQuMTA0NiAxMSwxMyBDMTEsMTIuMzE2NjQ2MiAxMS4zNDI3MDMsMTEuNzEzMzg3IDExLjg2NTYxMjQsMTEuMzUyNjQwMyBMMTIsMTEuMjY3NiBMMTIsNy41IEMxMiw2LjI1OTA5MSAxMS4yNDY1OTMsNS4xOTQxNTE0NSAxMC4xNzIyMzg5LDQuNzM3NjY3MDIgTDEwLDQuNjcwNzEgTDEwLDcgTDYsMy41IEwxMCwwIFogTTMsMSBDNC4xMDQ1NywxIDUsMS44OTU0MyA1LDMgQzUsMy42ODMzMzUzOCA0LjY1NzI5NzA0LDQuMjg2NjM1NzQgNC4xMzQzODc2Miw0LjY0NzM5NjcgTDQsNC43MzI0NCBMNCwxMS4yNjc2IEM0LjU5NzgsMTEuNjEzNCA1LDEyLjI1OTcgNSwxMyBDNSwxNC4xMDQ2IDQuMTA0NTcsMTUgMywxNSBDMS44OTU0MywxNSAxLDE0LjEwNDYgMSwxMyBDMSwxMi4zMTY2NDYyIDEuMzQyNzAyOTYsMTEuNzEzMzg3IDEuODY1NjEyMzgsMTEuMzUyNjQwMyBMMiwxMS4yNjc2IEwyLDQuNzMyNDQgQzEuNDAyMiw0LjM4NjYzIDEsMy43NDAyOCAxLDMgQzEsMS44OTU0MyAxLjg5NTQzLDEgMywxIFoiIGZpbGwtcnVsZT0iZXZlbm9kZCIgZmlsbD0iIzAwMDAwMCIvPiYjeGE7PC9zdmc+;" vertex="1" parent="1">
          <mxGeometry x="150.25" y="190" width="40" height="40" as="geometry" />
        </mxCell>
        <mxCell id="xmW9bThQL1s-JcA6EsOf-10" value="" style="shape=image;verticalLabelPosition=bottom;labelBackgroundColor=default;verticalAlign=top;aspect=fixed;imageAspect=0;image=data:image/png,iVBORw0KGgoAAAANSUhEUgAAAMgAAADICAYAAACtWK6eAAAABHNCSVQICAgIfAhkiAAAAAlwSFlzAAALEwAACxMBAJqcGAAAEo5JREFUeJztnWu0XVV1gL97b8gDEiFcSCIBAgnvEAyWRygMQRFQKx1th7ykSlHKo6igY9CGijQQFaW1AgVlKAJCsTwUEFJMyuBlCYKiYhANJCQQhIB5kYQk3Jt4T3/Me5pD7jknd58191xrnz2/MeY4GZDsPedca+299lpzzQmO4ziO4ziO4ziO4ziO4ziO4ziO4ziO4ziO4ziO4ziO4ziOkxwdsRVwANgZmARMAHbvl7FAN7AjMBoYCQztl236/10v0NP/ux5YCSwHVgDLgFeAxcBL/b8rLIxpJ3yA2NIJTAYOB6b2/3kyMkAsWAY8C8zrl6eB54A+o/sXDh8g+TIEmAZ8EHgfcAgwKqpGA1kN/AyYCzwCPAn8KapGTlszFjgbuB9YA1QKJquAO4EzgTHKvnFKyjjg88DjyNM3difXkk3AQ8iA71bzllMKhgOnAA8gHSl2Z85bNiJvxb8EuhT857QpE4CvI6tFsTttLPkDMBMYH+hLp404Evgx7TWFCpVe4BbgoAC/OgXnBOAx4nfG1GUO8hBxSsIxyJJn7I5XNJkNHJrd3U5RmIo0cuyOVnS5B9gro++dhOkGvoN/Y2hKD3Al6W2OOhnoBM5D4pRid6h2ldeBjw+2QZx02A94gvgdqCzy30ggppM4Q4CLgbeJ32nKJmuBf9h6Ezmx2BMJzovdUcousyhArFfZonlPA64H3hVbkRZYD7xVI31sPh8yHDk3sm007VrjDSQo8iexFWlEWQbIMOBa4KzYijRgLfAisBBY0P+7EFiEhKOvY3BnNoYjq3HjgT2Qt+UkYApwIHLoKjUqwBXAl/BzKVHYFXiK+FOKWnkJuBWJkt0fmwdVBzJYTgeuA54hrSXt2chb0DHkKOQ1Hrvx3wJuRzrnbrlanI2dEJ1uJY3gy0XIm84x4DTirlKtB34InEQxvg2GAMcD30POtsfy22rkBKaTI9OR+WyMBp6LbIqlON8fLMMQGx4hjg97gU/lbmUJ6QCuwb5BNwL/BRyWv4nm7Ius/G3A3q//bGBfaegCbsS2Ad9EYo1S+q7Ii52ByxCbLX38VQvj2p0hwB3YNVoP8E3KueoyGvgysjRt5e9rKM+WhDpd2A6Ou5Dl0rIzBtvo52tszGovOoCbsWmgJ4E/N7GqWEwFfopNG1xhZFPbcB35N8p64EL8Fd+MDuAcbL5PvmhkU+H5IjZvjX2tDGoDdkFC2vNuF18C3gqfIN8G6EGWGD3/U2ucj7x582qfjcBxZtYUjKORjaS8nL8IeI+ZNe3LAcDvyK+dVuNhKQPYHfgj+Tn9YTzFpiYjkVW/PB9mZVxqr8twJF1/Xs6+FtlPcfTJM/RnNpJXoPTcRD4O7iHdcyLtxEnkF64y09COJMnro3wdcKyhHWXnCPKJFO4DPmRoR1LsTT5hDWuRojaOLQeRzxmdpdhV6kqGIeTz3fEm8jRz4rAPUj9Ru13vszQiBS5F34krkVJoTlz2QRLKabfvuZZGxGQK+vsda4H3WhrhNOVA9I/6rkHyELQ1XehPrTYBH7Y0whkUhyGLJZptfb+pBRH4HPqv3vNMLXCy8Ffoh82famqBIWPRjwr9d1MLnFa4EN02X0qbZpX/PrqOugffaS0Kt6Db9l+zVT9/DkE3JGEhxc4uUjZGAL9Gr/3fBiaaWpAzD6HnnI20Z5aRdmciEqmr1Q9+ZKt+fpyA7uvVU8YUF+3QorbY9/oleg55BP/uKDo/QK8/JJs9frB8FD1nrKQEG0UlYDS6O+2FTrihWdDmbGPdnfw4Gb1+McdYdzWORc8JT5Pe1KoDSQp9FfAg8HPgUSSn1MlIHlynMT9Gr39MMdZdhZ+gY3wf6UXofoCtn8t+Hfi7SPoVgT3Ry9L/fWPdg9kHvX2PW4x13xrnki184j/iqFkIvopOH+lFqm8VhqvRMXwNMM5Y92YcS2uxRRfEULYAjERCRzT6ymXGurfMduhtCF1qrHszuoD5tGbHWtIa6CmhFcD6CgXJd/ZJ9N4eo411b8anCLPHkzTXZxiwBJ0+8xfGurfEw+gYe6W14k3YBlhMmD09SP4vZyDnotNn7rVWPCsT0Pk430BaUxKtBrzBWvGCMBydhA+9JJ5wbjo6Henb1oo3YRh6iQg2ItlcnIFo5Sn4tLXiWfgF4QZuQtbIU+ECdBquKj+wVb8wdKOTgO5/rBUfLLuh04FmWyvehG3Rz9DRR0F3fg24FZ0H7E7Wig+Gz6LTgT5urXgTLkJ3cFQl+Y/JSLwPHf9+wlrxwTCHcMPWIKfPUmAksIx8BkgFP/TViOcJ921y09hh6BRW+Z614k24hPwGR4WE58qRmUG4b5eTWHCrVuTu0daKN2AHYBX5DpCU7E2J/dHx7TRrxZtxBeEGLSGdgpqXk//gqAD/a2VQwZhHuG+nm2vdhMcJN+i75lrXpxv5FrIYIBVKnN6/CV8h3K+zzLVuwDbofH+cYq14A76O3eCoIIfBnHdyFOF+XUkiM5JDCDemjzTWrsein092MPI3FsYViC50CvJMbnQDyy/4wxWu8Wtk5SE205HNQWtmktiqS2T+BDymcJ2GaYEsna1RWvlBhWuEMp54NSgOIK0N0hSYq3CNJCIW5hL+KjzeXOuBfAv7qVWtLMSr8dYyjXCfJrHXpJGxfay51u9kAnJeI+YAqeCpjWoZSnibvG6u9RaMJ7xT/NFc64HcQPzBUUHC6j1d0GZ+Q7hPd6h3YatvEI2w9OcUrhHCJOCMyDpU2RUvCFTLPIVr1O2jVgNkgsI1Yg+QGaQ1978YSXzh6AyQPer9xyINkN8qXKNV9kdv9ehOpeuMQTJ9OLJwEUrdN0iWJ2IHshw2GXgX2XYfj8vwdxtRIV4a+0vQeZj8AcnmsiPwQYXrXYSsqq1WuFaVoUhQ6TTkvH9oipwKEkGxADnqsCDwevVYrHCNlhNlDEEOOS0m/sdp0eWcfp8epnjNmQ3aLSsdyOqYVoK2RjIH2c/RZHsFvW5r5cbjgKcUbu4CLyLxaFXuU7ruWmDngU2XiaFIJSYrX6xHEndrEho4mvkI9460niHQZaCcsYV/34NeXuJvEMZtEfyxCd0I5cWB+mQOBv1h4A1dNst86s/l71C6/gZaT8r8sYh+eYMG+w8tEJopZ3GWm2ls37tslkZF7fdDnqQa92glR1gX8EJk33ypBb3rEVpGI9Nu+ncDb+ayWebRfMVPqy58L9k3ZEPzCGvI/Iw6N+LuQD1WZbnZgsCbuWyWv96Kr/dEOrfGvbIUiBkKvJSAfyropAG9PVCHdfUu2mht35Mn6/BL4J6t/J3FwI1K9/tbZFNzMJyFzgauBhr5lXsC/32m2LYUIlbbQT48SH+PRyedZoXB7dQPB15NwD9V2WuQfmrGjYE6bKp30UZvkJcVFC47TzD4+tyvAtcr3fdjwNSt/J3zgF2U7hdKDzr9LTS6OdMb6DvEf6oUXT6QxeFIbNVbSvdulqljO3RKCGjJAxn91IjQbYlMH+maoRBllIezOLsGrWKVFRpX/L04Af/Uykdac9UA7g/UI/OhqdBVgbLKRuC9WZ3dz2h0Tl5WqD9It0cnC4iW3Nein+oRmnNtcdYb7oCcwYjtxKLJhVkdvQVaBWIqSFRuLZcl4J+qPItubcnfB+rTUt6xMUjay9jOLIJsRKeM8yj0ssU/WXPdbvSqCofKfegXXg31Wcv1ZjqRMOjYIQmpykZkr+OgVh1cB816Iyf2X/NrEXxTK28jH+Ra3xy1bENrdelr5T/rXThrysV9gQORuWzZE5htQpZnf4F8N2gyAliEzgbab5Co2RfRSXZ3F7KYMFgqyC71y8jDJA/2Ivwg1tWET48dQz6D3tNbI+tH9W05KU+jW+Q4wm37grnWThBDkaduzGnRlpJqeepzCLetbsxc2adJKdOL3nFaDXqReigp0jD5dAYWK1zDMWYI6URWX5ezrSE8Srh921sr7ehwOvEHxwbSid2qxwrC7Ftqr7KjRSeSEyzmAPlm7la2ziTC7ZvT6OL+DZI+fcjueizWIbUlU+VIhWs82+h/+AApBncDv4p072tJI3F4I45SuIZG6lInMh/Bfmq1BglRSZnnCbdTO5GdEwmNIkRZJNVl3SoTCbdxBYkU8XTCOQa7wbGS9Jc+zyfczvub3cC/QYrFo7R+GCsr30A3KXYeaAQ+Pq5wDSchLJL6LQNGWhnUIqPRSZekUX3ZSYxZ5DtALrIzpWU0kt4tw2dRbcnB6CW+3lKWIuH2qTOHcFtbKnngFIO7yGeAFKFq1e6EH5CqIIn2kqQLCcQLkdDKR0Vnf3Q6Sa0UpXruDMJt3UjCezzPEG7gW+jkdC0yt6A7QM61Vb8luoAlhNva8hl0C76AToNeYq14YkxEnoQavlzEOytgpcrJ6Nh7prXiWRiHTl2M1ynGlCBPtLJgJt1haggtlFNB0oxqFe7JjdCCJ1U5y1rxxNgNyRgS4sMXKMY33THo9Jm7jfVuidPQMbZRebMycTVhPjzdXuWWeASdPjPYrPtRGUF4ZVJ/iwhjaT3x9W8pxmbZsej0lZcphr2A1NXTMPo1dHI+FZl/Irvf+siehT4WT6DTV/7FWvEQ9kZvLV+rGGRR6SR7CYB/jKJpdk5Bp4/0AO821j2Y0OKLVVmDTDXKzBDgGrYehrIeSSdbBEaglx/sJmPdVdCMTvXYGuEwpHzFlt94ryEf9EWqQTkDvf6hkT8rCpoZ5PNIjlxUOpEqulMo4NQCCafRqpepVckqCieiN0CWICUEnGLTQXhRnFop9LmPDnTis6ryLVv1nRz4HHr9oVnNxsKgkaG7Kn0UZDPIqcsUwqMDavvCwbbq58cD6A2S5cCutuo7CgxHN5PkXbbq58sB6AQxVmUusvTpFIcb0Gv/DcgiRVtxPXoOqgD/aqu+E4BGnY9a+Yqt+jaMQS9GqypFCcYrM0egt6RbQcrjbWdqgSEXoDtAepBQaSdNJiH5fzXb/CRTC4zpRL/89Co8B2uKdKOTX7dW7jW1IBJ7IzFDmo57mbQLwZSNkcDP0G3j1cB4SyNionV2vVbm44MkBUagdwCqVv7e0ojYdKIbblCVFyjRUyZBRqB35Lp0U6st2YfWT8s1kwX4RmIMRqFTdHNLeQ3Yyc6MtDgVfYdWkFQ3+xraUXa6gafQb8c+JFSp1FxFPoNkJb4EbMHeyNQ2jzacYWdGugwBfko+Du4FzrAzpXQchcTG5dF2s/AKUf/POGSumYejK0g117KnENLmM+jU8agnCylAAjhrjiQ/h1eAx/AVLg22BW4lv3byjd8mnEp+9TEqyHTgo2bWtB9/huw35dU+vcD7zawpKJ8lvwaoytW0ccBbDnQB08n3DV8BPmllUNGZSf6D5CU8EcRgmIpOYumtSVFyeSWD9vmRRnIHskjgvJNRwJXolWFoJjONbGorOpHOazFI3kSmEEWo4Zc3nUghzaXY+P4qG7Paky7gZmwaqoIcxjmb8h7nPRH4FXb+vgrf6wimg/AyAFnleaQQZBEqM4XSgXyL/RxbH/u0SpnLsG3A6hvlYtqzZuIw4NPAc9j71T/Ic+Lz5LtP0kjWIUnrDs3fxNzZD/g39I/CDkZ68aXc3DkN/ROJWWQ+cClSaLMovBvZX8rjDM5gZRW+CWjGwcg+RqzGrspTSOGWI0gv1utA4CLkjIZ23fWsshAPHzFnJ+Ah4g+S2ifkj4DzkKmYZZXeDmRAnIPUWH8lwA5tmUWCgYdlWTrrQubTF8ZWpA6bgN8hy6bPIG+8Jf2yosVrbgvs0S+TkEFxEFIfI7XM9xXgcjYvriRFWQZIlVOQuoijYysySNYjT/k1/X+uyjpkEWJYjXQjb8tuimPfUuQczoOxFXE2swv5JAxwySb3UuIz5EXgbGAt8TtK2WQ1JUvNU2T2RA5Ixe40ZZF78cNohaMDOBO7oLsyyqu0ea7cMjAKOZOuVdnIRepzfBk/dNZWTET2KWJ3riJLH3AnsszstClHk9YGY1FkFm1UE9DZOocjH5cxgh+LJA8A01r0sdMGTEbS2FgcLS2K9AA39fvGcQCZV1+OhILE7qCxZAkSfOllJJyGdALHA7dTjpWvHuBupP58p4L/nBIxGjgfKQjTTlOwjcBsZJ8ouUhbp5hsj2yK3Qy8QfxOnlWWA7chZ+27dV1TPMoWzWtNB3AIcAKyGnYoMDaqRgNZCTyBnCJ8FEn+1hdToZTwAWLPbshAqcoUpDa8Ba8D84Bn+3+fBn6PvDmcOvgASYMRwIR+2aNfJgA7I4eftqvz24l8OPf2/25ADlgtr5ElwOIaWW1jjuM4juM4juM4juM4juM4juM4juM4juM4juM4juM4juM4juM4OfJ/XxhmMAIqruIAAAAASUVORK5CYII=;" vertex="1" parent="1">
          <mxGeometry x="145.25" y="330" width="50" height="50" as="geometry" />
        </mxCell>
        <mxCell id="xmW9bThQL1s-JcA6EsOf-11" value="Status" style="text;html=1;strokeColor=none;fillColor=none;align=center;verticalAlign=middle;whiteSpace=wrap;rounded=0;" vertex="1" parent="1">
          <mxGeometry x="180" y="340" width="60" height="30" as="geometry" />
        </mxCell>
      </root>
    </mxGraphModel>
  </diagram>
</mxfile>
